<?xml version="1.0" encoding="UTF-8" standalone="no"?>
<!-- Created with Inkscape (http://www.inkscape.org/) -->

<svg
   width="105.069mm"
   height="133.349mm"
   viewBox="0 0 105.069 133.349"
   version="1.1"
   id="svg1033"
   inkscape:version="1.1 (c4e8f9ed74, 2021-05-24)"
   sodipodi:docname="logo.svg"
   xmlns:inkscape="http://www.inkscape.org/namespaces/inkscape"
   xmlns:sodipodi="http://sodipodi.sourceforge.net/DTD/sodipodi-0.dtd"
   xmlns="http://www.w3.org/2000/svg"
   xmlns:svg="http://www.w3.org/2000/svg">
  <sodipodi:namedview
     id="namedview1035"
     pagecolor="#ffffff"
     bordercolor="#666666"
     borderopacity="1.0"
     inkscape:pageshadow="2"
     inkscape:pageopacity="0.0"
     inkscape:pagecheckerboard="0"
     inkscape:document-units="mm"
     showgrid="false"
     inkscape:zoom="0.50422278"
     inkscape:cx="395.65844"
     inkscape:cy="561.25984"
     inkscape:window-width="1440"
     inkscape:window-height="874"
     inkscape:window-x="1366"
     inkscape:window-y="0"
     inkscape:window-maximized="1"
     inkscape:current-layer="layer1" />
  <defs
     id="defs1030">
    <clipPath
       clipPathUnits="userSpaceOnUse"
       id="clipPath16">
      <path
         d="M 0,612 H 935.43 V 0 H 0 Z"
         id="path14" />
    </clipPath>
  </defs>
  <g
     inkscape:label="Layer 1"
     inkscape:groupmode="layer"
     id="layer1">
    <g
       id="g2797"
       transform="matrix(0.99999792,0,0,1,-41.994019,-33.818504)">
      <g
         id="g18"
         transform="matrix(0.35277777,0,0,-0.35277777,94.643563,167.94965)">
        <path
           d="m 0,0 -10.913,3.253 c -12.864,4.368 -38.568,14.631 -64.577,33.862 -21.212,15.684 -38.15,34.092 -50.344,54.711 -15.317,25.901 -23.083,55.225 -23.083,87.16 v 170.063 l 6.48,2.88 c 1.715,0.763 43.082,18.758 136.579,25.652 L 0,377.997 5.842,377.583 c 93.513,-6.896 134.879,-24.891 136.595,-25.654 l 6.48,-2.88 V 178.986 c 0,-31.934 -7.766,-61.259 -23.082,-87.16 C 113.64,71.207 96.702,52.799 75.49,37.115 49.482,17.884 23.777,7.621 10.914,3.253 Z"
           style="fill:#ffde17;fill-opacity:1;fill-rule:nonzero;stroke:none"
           id="path20" />
      </g>
      <g
         id="g22"
         transform="matrix(0.35277777,0,0,-0.35277777,94.643563,38.459893)">
        <path
           d="m 0,0 v -355.771 c 0,0 138.003,36.377 138.003,167.7 v 162.97 C 138.003,-25.101 96.267,-6.548 0,0"
           style="fill:#231f20;fill-opacity:1;fill-rule:nonzero;stroke:none"
           id="path24" />
      </g>
      <g
         id="g26"
         transform="matrix(0.35277777,0,0,-0.35277777,94.643563,38.459893)">
        <path
           d="m 0,0 v -355.771 c 0,0 -138.004,36.377 -138.004,167.7 v 162.97 c 0,0 41.737,18.553 138.004,25.101"
           style="fill:#ed1c24;fill-opacity:1;fill-rule:nonzero;stroke:none"
           id="path28" />
      </g>
      <g
         id="g30"
         transform="matrix(0.35277777,0,0,-0.35277777,78.555133,95.439006)">
        <path
           d="m 0,0 c 0,0 -27.419,16.779 -32.876,31.375 0,0 -5.866,-3.865 0,-18.37 l -6.821,5.268 c 0,0 -3.82,-9.543 4.229,-18.273 l -7.639,6.548 c 0,0 -0.683,-10.914 6.138,-18.28 l -4.911,2.046 c 0,0 -0.682,-12.281 6.685,-16.781 h -3.138 c 0,0 -3.873,-11.081 12.414,-14.458 h -5.047 c 0,0 3.046,-10.822 11.959,-12.823 0,0 13.187,-18.098 31.648,-13.096 C 31.103,-61.842 0,0 0,0"
           style="fill:#ffde17;fill-opacity:1;fill-rule:nonzero;stroke:none"
           id="path32" />
      </g>
      <g
         id="g34"
         transform="matrix(0.35277777,0,0,-0.35277777,67.86071,110.04312)">
        <path
           d="m 0,0 c 0.794,-2.267 4.076,-10.242 11.411,-11.89 l 0.173,-0.039 0.105,-0.143 c 0.13,-0.178 13.215,-17.776 31.144,-12.918 2.024,0.548 3.453,1.81 4.368,3.858 C 53.566,-6.883 31.277,38.4 29.952,41.065 27.781,42.405 3.09,57.877 -2.748,71.957 -3.928,70.641 -6.739,65.994 -2.123,54.58 l 0.654,-1.619 -7.673,5.927 c -0.644,-2.203 -2.264,-10.011 4.336,-17.171 l -0.654,-0.679 -6.875,5.893 c 0.029,-2.82 0.605,-11.087 6.028,-16.945 l 1.474,-1.59 -6.273,2.613 c -0.006,-2.6 0.409,-11.971 6.472,-15.675 L -3.2,14.458 H -7.662 C -7.905,13.496 -8.449,10.5 -6.76,7.527 -4.94,4.324 -1.154,2.105 4.492,0.935 L 9.002,0 Z m 36.54,-26.784 c -14.285,0 -24.357,12.519 -25.506,14.012 -8.952,2.132 -12.013,12.667 -12.14,13.117 l -0.169,0.6 h 2.067 c -4.027,1.351 -6.839,3.405 -8.382,6.131 -2.245,3.966 -0.931,7.847 -0.874,8.011 l 0.11,0.316 h 1.993 c -6.22,5.09 -5.702,15.852 -5.676,16.335 l 0.037,0.667 3.738,-1.557 c -5.543,7.293 -5.029,16.702 -5.002,17.127 l 0.059,0.946 5.094,-4.366 c -4.621,7.76 -1.744,15.206 -1.71,15.292 l 0.233,0.58 5.978,-4.617 c -4.906,13.406 0.546,17.197 0.789,17.357 l 0.495,0.326 0.207,-0.555 C 3.219,58.66 30.289,41.967 30.562,41.8 l 0.114,-0.07 0.061,-0.121 c 0.984,-1.957 24.034,-48.112 17.327,-63.127 -1.023,-2.291 -2.701,-3.766 -4.984,-4.384 -2.261,-0.613 -4.446,-0.882 -6.54,-0.882"
           style="fill:#231f20;fill-opacity:1;fill-rule:nonzero;stroke:none"
           id="path36" />
      </g>
      <g
         id="g38"
         transform="matrix(0.35277777,0,0,-0.35277777,79.325106,114.35192)">
        <path
           d="m 0,0 c 6.366,1.864 -11.1,15.658 -11.1,15.658 0,0 -22.049,1.94 -22.868,1.666 -0.184,-0.06 -0.652,-0.856 -1.237,-2.098 1.784,-1.03 4.099,-1.916 7.103,-2.539 h -5.047 c 0,0 3.046,-10.823 11.959,-12.824 0,0 14.824,-1.727 21.19,0.137"
           style="fill:#ffde17;fill-opacity:1;fill-rule:nonzero;stroke:none"
           id="path40" />
      </g>
      <g
         id="g42"
         transform="matrix(0.35277777,0,0,-0.35277777,67.86071,110.04312)">
        <path
           d="m 0,0 c 0.794,-2.267 4.076,-10.242 11.411,-11.89 0.098,-0.008 14.753,-1.687 20.954,0.129 0.814,0.24 0.98,0.633 1.033,0.908 C 33.975,-7.884 24.907,0.056 21.215,2.986 12.783,3.727 0.154,4.756 -1.271,4.662 -1.391,4.514 -1.66,4.087 -2.089,3.208 -0.286,2.231 1.925,1.468 4.492,0.935 L 9.004,0 Z m 23.657,-13.558 c -5.971,0 -12.014,0.693 -12.404,0.738 -9.132,2.048 -12.232,12.712 -12.359,13.165 l -0.169,0.6 h 2.076 c -1.392,0.468 -2.644,1.022 -3.744,1.658 l -0.376,0.216 0.184,0.394 c 1.028,2.183 1.333,2.286 1.516,2.347 0.844,0.279 17.863,-1.187 23.058,-1.645 L 21.58,3.902 21.691,3.815 c 1.377,-1.087 13.432,-10.745 12.635,-14.848 -0.107,-0.55 -0.488,-1.28 -1.696,-1.635 -2.295,-0.672 -5.622,-0.89 -8.973,-0.89"
           style="fill:#231f20;fill-opacity:1;fill-rule:nonzero;stroke:none"
           id="path44" />
      </g>
      <g
         id="g46"
         transform="matrix(0.35277777,0,0,-0.35277777,73.197321,104.77591)">
        <path
           d="m 0,0 c -1.364,0.366 -19.917,5.459 -20.735,5.459 -0.392,0 -1.848,-0.462 -3.308,-1.14 0.961,-1.703 2.264,-3.237 4.035,-4.319 h -3.138 c 0,0 -3.872,-11.081 12.415,-14.458 l 24.281,-5.911 c 0,0 3.547,4.911 1.182,7.912 C 12.368,-9.456 1.364,-0.366 0,0"
           style="fill:#ffde17;fill-opacity:1;fill-rule:nonzero;stroke:none"
           id="path48" />
      </g>
      <g
         id="g50"
         transform="matrix(0.35277777,0,0,-0.35277777,65.157868,104.94266)">
        <path
           d="m 0,0 c -0.244,-0.962 -0.787,-3.958 0.901,-6.931 1.821,-3.203 5.607,-5.422 11.252,-6.592 l 23.978,-5.836 c 0.657,1.015 2.844,4.766 1.019,7.082 C 34.704,-9.172 23.819,-0.293 22.667,0.016 22.478,0.066 21.959,0.208 21.205,0.413 9.075,3.72 2.627,5.417 2.042,5.459 1.825,5.458 0.74,5.149 -0.58,4.577 0.399,2.985 1.61,1.742 3.028,0.876 L 4.461,0 Z m 36.537,-20.431 -24.591,5.986 c -5.917,1.227 -9.917,3.604 -11.875,7.063 -2.245,3.966 -0.93,7.847 -0.873,8.011 l 0.11,0.316 H 1.305 C 0.152,1.894 -0.844,3.104 -1.666,4.56 l -0.252,0.445 0.464,0.216 c 1.406,0.652 2.979,1.183 3.508,1.183 0.38,0 2.982,-0.603 19.4,-5.079 0.752,-0.205 1.269,-0.346 1.457,-0.396 1.671,-0.449 12.733,-9.767 14.982,-12.621 2.556,-3.245 -1.017,-8.269 -1.17,-8.481 z"
           style="fill:#231f20;fill-opacity:1;fill-rule:nonzero;stroke:none"
           id="path52" />
      </g>
      <g
         id="g54"
         transform="matrix(0.35277777,0,0,-0.35277777,77.04722,105.25649)">
        <path
           d="m 0,0 c -0.637,1.819 -13.824,12.732 -13.824,12.732 0,0 -15.067,9.695 -23.28,10.771 0.917,-2.523 2.305,-5.133 4.41,-7.406 l -4.911,2.047 c 0,0 -0.643,-11.609 6.093,-16.388 l 29.239,-8.441 c 0,0 2.91,4.867 2.273,6.685"
           style="fill:#ffde17;fill-opacity:1;fill-rule:nonzero;stroke:none"
           id="path56" />
      </g>
      <g
         id="g58"
         transform="matrix(0.35277777,0,0,-0.35277777,66.004147,104.48479)">
        <path
           d="m 0,0 28.808,-8.316 c 1.064,1.854 2.437,4.866 2.049,5.972 -0.431,1.234 -8.595,8.317 -13.657,12.506 -0.655,0.419 -14.261,9.06 -22.267,10.558 1.003,-2.507 2.354,-4.687 4.023,-6.49 l 1.473,-1.59 -6.273,2.613 C -5.849,12.746 -5.463,3.942 0,0 m 29.249,-9.427 -29.731,8.61 c -6.87,4.875 -6.319,16.314 -6.292,16.799 l 0.037,0.667 3.741,-1.559 c -1.335,1.763 -2.424,3.794 -3.249,6.064 l -0.265,0.731 0.771,-0.101 C 2.484,20.707 17.117,11.34 17.735,10.942 l 0.046,-0.034 c 1.36,-1.125 13.307,-11.051 13.968,-12.939 0.69,-1.971 -2.004,-6.566 -2.314,-7.083 z"
           style="fill:#231f20;fill-opacity:1;fill-rule:nonzero;stroke:none"
           id="path60" />
      </g>
      <g
         id="g62"
         transform="matrix(0.35277777,0,0,-0.35277777,76.19699,100.78098)">
        <path
           d="m 0,0 c -1.364,6.412 -32.603,24.691 -32.603,24.691 0,0 -0.425,0.122 -1.075,0.199 0.49,-2.987 1.832,-6.426 4.894,-9.747 l -7.639,6.547 c 0,0 -0.682,-10.913 6.139,-18.28 l 26.13,-14.082 c 0,0 5.518,4.261 4.154,10.672"
           style="fill:#ffde17;fill-opacity:1;fill-rule:nonzero;stroke:none"
           id="path64" />
      </g>
      <g
         id="g66"
         transform="matrix(0.35277777,0,0,-0.35277777,65.617079,99.444269)">
        <path
           d="m 0,0 25.777,-13.893 c 1.002,0.886 4.878,4.709 3.751,10.005 -1.043,4.902 -21.567,18.051 -32.324,24.35 -0.059,0.015 -0.164,0.04 -0.307,0.069 0.658,-3.239 2.223,-6.217 4.657,-8.858 L 0.899,10.994 -5.975,16.887 C -5.946,14.077 -5.374,5.854 0,0 M 25.882,-15.022 -0.641,-0.699 C -7.52,6.73 -6.933,17.477 -6.904,17.931 l 0.059,0.946 5.081,-4.356 c -1.212,2.03 -2.013,4.205 -2.39,6.503 l -0.101,0.619 0.622,-0.073 c 0.681,-0.08 1.132,-0.208 1.151,-0.214 l 0.108,-0.046 c 1.283,-0.75 31.435,-18.46 32.827,-25 1.409,-6.626 -4.093,-10.963 -4.328,-11.145 z"
           style="fill:#231f20;fill-opacity:1;fill-rule:nonzero;stroke:none"
           id="path68" />
      </g>
      <g
         id="g70"
         transform="matrix(0.35277777,0,0,-0.35277777,77.063236,96.914887)">
        <path
           d="m 0,0 -31.164,26.627 c 0.231,-2.481 0.956,-5.58 2.517,-9.439 l -6.821,5.269 c 0,0 -3.82,-9.543 4.229,-18.273 9.549,-8.185 37.105,-22.509 37.105,-22.509 z"
           style="fill:#ffde17;fill-opacity:1;fill-rule:nonzero;stroke:none"
           id="path72" />
      </g>
      <g
         id="g74"
         transform="matrix(0.35277777,0,0,-0.35277777,66.15884,95.318956)">
        <path
           d="M 0,0 C 8.378,-7.169 30.907,-19.219 35.975,-21.894 L 30.501,-4.796 0.361,20.956 c 0.36,-2.435 1.145,-5.158 2.34,-8.114 L 3.355,11.223 -4.318,17.15 C -4.96,14.95 -6.579,7.154 0,0 m 37.576,-23.797 -1.018,0.528 C 36.282,-23.125 8.844,-8.826 -0.636,-0.7 l -0.04,0.039 c -8.157,8.848 -4.36,18.671 -4.321,18.77 l 0.233,0.58 5.979,-4.618 c -1.065,2.916 -1.716,5.596 -1.939,7.988 l -0.109,1.16 32.152,-27.471 z"
           style="fill:#231f20;fill-opacity:1;fill-rule:nonzero;stroke:none"
           id="path76" />
      </g>
      <g
         id="g78"
         transform="matrix(0.35277777,0,0,-0.35277777,78.555133,95.439006)">
        <path
           d="m 0,0 c 0,0 -27.419,16.779 -32.876,31.375 0,0 -5.866,-3.865 0,-18.37 0,0 20.599,-23.236 32.467,-29.375 3.588,-1.856 5.322,0.357 5.976,4.377 C 2.451,-4.873 0,0 0,0"
           style="fill:#ffde17;fill-opacity:1;fill-rule:nonzero;stroke:none"
           id="path80" />
      </g>
      <g
         id="g82"
         transform="matrix(0.35277777,0,0,-0.35277777,67.100897,90.762126)">
        <path
           d="m 0,0 c 1.181,-1.323 20.917,-23.332 32.276,-29.208 1.265,-0.654 2.309,-0.782 3.107,-0.382 1.041,0.523 1.768,1.963 2.164,4.279 -2.785,6.353 -5.049,10.935 -5.441,11.721 C 29.935,-12.25 5.244,3.222 -0.594,17.302 -1.772,15.989 -4.573,11.359 0,0 m 34.375,-30.764 c -0.763,0 -1.609,0.239 -2.533,0.717 -11.81,6.109 -31.759,28.529 -32.603,29.481 l -0.054,0.061 -0.03,0.075 c -5.943,14.696 -0.075,18.776 0.178,18.943 l 0.495,0.325 0.207,-0.555 C 5.372,4.007 32.442,-12.688 32.715,-12.854 l 0.115,-0.071 0.061,-0.12 c 0.025,-0.049 2.492,-4.966 5.578,-12.016 l 0.056,-0.128 -0.022,-0.138 c -0.442,-2.712 -1.349,-4.43 -2.695,-5.107 -0.437,-0.221 -0.916,-0.33 -1.433,-0.33"
           style="fill:#231f20;fill-opacity:1;fill-rule:nonzero;stroke:none"
           id="path84" />
      </g>
      <g
         id="g86"
         transform="matrix(0.35277777,0,0,-0.35277777,61.061977,105.71366)">
        <path
           d="m 0,0 c -0.273,0 -2.865,-3.684 -0.41,-6.139 2.456,-2.455 8.527,-4.433 10.709,-7.298 2.183,-2.865 65.002,-52.861 65.002,-52.861 l 1.637,5.73 -74.537,59.236 z"
           style="fill:#ffde17;fill-opacity:1;fill-rule:nonzero;stroke:none"
           id="path88" />
      </g>
      <g
         id="g90"
         transform="matrix(0.35277777,0,0,-0.35277777,61.141211,105.85699)">
        <path
           d="m 0,0 z m -0.153,-0.174 c -0.328,-0.43 -0.985,-1.548 -1.052,-2.818 -0.049,-0.947 0.255,-1.757 0.905,-2.406 1.055,-1.055 2.83,-2.031 4.709,-3.063 2.349,-1.29 4.779,-2.625 6.042,-4.283 1.683,-2.21 42.51,-34.939 64.366,-52.337 l 1.355,4.745 L 1.914,-1.32 Z m 75.489,-66.528 -0.554,0.44 c -2.567,2.043 -62.89,50.067 -65.083,52.946 -1.142,1.498 -3.482,2.784 -5.745,4.027 -1.94,1.065 -3.772,2.072 -4.922,3.223 -1.734,1.733 -1.194,3.92 -0.718,5.071 0.032,0.076 0.785,1.874 1.461,1.874 h 0.122 l 2.574,-1.435 74.784,-59.432 z"
           style="fill:#231f20;fill-opacity:1;fill-rule:nonzero;stroke:none"
           id="path92" />
      </g>
      <g
         id="g94"
         transform="matrix(0.35277777,0,0,-0.35277777,89.270758,90.562489)">
        <path
           d="m 0,0 c 0,0 -27.829,6.73 -34.74,3.638 -6.912,-3.093 -35.105,-36.196 -43.835,-39.47 0,0 -0.773,6.321 -6.366,4.138 -5.593,-2.183 -4.639,-12.413 -0.819,-14.46 3.82,-2.046 13.369,3.274 30.694,21.826 17.324,18.553 32.876,20.463 42.561,13.642 C -2.819,-17.507 0,0 0,0"
           style="fill:#ffde17;fill-opacity:1;fill-rule:nonzero;stroke:none"
           id="path96" />
      </g>
      <g
         id="g98"
         transform="matrix(0.35277777,0,0,-0.35277777,60.070142,101.74872)">
        <path
           d="m 0,0 c -0.604,0 -1.271,-0.143 -1.996,-0.425 -3.006,-1.174 -3.532,-4.65 -3.618,-6.091 -0.198,-3.306 1.028,-6.536 2.851,-7.512 1.97,-1.057 8.85,-1.051 30.125,21.732 15.561,16.664 31.702,21.787 43.179,13.705 2.07,-1.458 3.952,-1.846 5.592,-1.155 4.015,1.692 5.724,9.208 6.094,11.099 C 78.67,32.186 54.448,37.698 48.226,34.915 45.156,33.542 37.558,25.871 29.513,17.749 19.533,7.672 9.212,-2.747 4.364,-4.565 l -0.56,-0.21 -0.075,0.594 C 3.726,-4.153 3.372,-1.47 1.611,-0.422 1.14,-0.142 0.601,0 0,0 m -1.153,-15.335 c -0.78,-10e-4 -1.466,0.157 -2.056,0.474 -2.163,1.158 -3.571,4.692 -3.349,8.402 0.206,3.428 1.744,5.948 4.218,6.914 C -0.603,1.133 0.89,1.11 2.099,0.388 3.697,-0.567 4.328,-2.479 4.554,-3.459 9.451,-1.163 19.732,9.217 28.841,18.414 36.95,26.6 44.609,34.333 47.84,35.778 54.818,38.9 81.742,32.444 82.885,32.168 L 83.31,32.065 83.24,31.634 C 83.174,31.222 81.556,21.514 76.5,19.383 74.538,18.557 72.351,18.979 69.997,20.637 58.941,28.422 43.262,23.346 28.052,7.059 14.283,-7.687 4.286,-15.334 -1.153,-15.335"
           style="fill:#231f20;fill-opacity:1;fill-rule:nonzero;stroke:none"
           id="path100" />
      </g>
      <g
         id="g102"
         transform="matrix(0.35277777,0,0,-0.35277777,77.255641,92.599745)">
        <path
           d="m 0,0 19.917,-14.187 c 0,0 9.822,-6.139 2.592,-14.733 -7.23,-8.594 -11.459,-7.776 -11.459,-12.55 0,-4.775 9.958,-8.322 10.231,-11.868 0.273,-3.547 -2.319,-15.552 -2.319,-15.552 0,0 -12.414,-1.455 -15.142,5.002 l 2.046,2.228 c 0,0 -8.594,-0.409 -13.505,9.686 l 6.139,-1.364 c 0,0 -6.713,3.546 -8.882,13.232 l 7.518,-2.456 c 0,0 -7.669,4.262 -10.368,16.643 l 7.23,-3.956 c 0,0 -6.217,10.513 -3.313,21.626 L 2.456,-13.915 C 2.456,-13.915 -1.5,-7.23 0,0"
           style="fill:#ffde17;fill-opacity:1;fill-rule:nonzero;stroke:none"
           id="path104" />
      </g>
      <g
         id="g106"
         transform="matrix(0.35277777,0,0,-0.35277777,78.800596,115.16941)">
        <path
           d="m 0,0 c 2.531,-5.193 12.258,-4.642 14.192,-4.476 0.415,1.969 2.477,11.968 2.239,15.079 -0.109,1.403 -2.173,2.965 -4.359,4.621 -2.888,2.187 -5.874,4.448 -5.874,7.283 0,2.853 1.429,3.909 3.797,5.658 1.915,1.414 4.539,3.352 7.773,7.196 2.002,2.38 2.829,4.778 2.459,7.127 -0.66,4.182 -4.897,6.874 -4.94,6.901 L -4.048,63.161 c -1.054,-6.684 2.494,-12.795 2.531,-12.858 l 0.793,-1.342 -12.651,6.089 c -2.478,-10.593 3.34,-20.606 3.4,-20.708 l 0.876,-1.481 -7.812,4.275 c 2.808,-11.252 9.824,-15.267 9.897,-15.308 l -0.377,-0.862 -6.712,2.192 c 2.273,-8.731 8.381,-12.068 8.445,-12.101 l 3.072,-1.634 -8.552,1.9 C -6.389,2.549 1.137,2.771 1.465,2.789 L 2.608,2.84 Z m 11.586,-5.535 c -3.965,0 -10.594,0.738 -12.581,5.44 L -1.113,0.186 0.46,1.898 c -2.507,0.261 -8.934,1.74 -12.903,9.898 l -0.429,0.88 4.781,-1.062 c -2.216,1.835 -5.668,5.617 -7.131,12.154 l -0.182,0.81 5.602,-1.83 c -2.54,2.273 -6.472,6.957 -8.271,15.209 l -0.221,1.013 6.783,-3.711 c -1.565,3.264 -4.942,11.781 -2.641,20.589 l 0.146,0.555 11.017,-5.303 c -1.083,2.314 -2.999,7.451 -1.853,12.973 l 0.148,0.709 20.506,-14.607 c 0.166,-0.103 4.622,-2.936 5.348,-7.539 0.415,-2.633 -0.483,-5.285 -2.669,-7.883 -3.305,-3.93 -5.981,-5.905 -7.935,-7.349 -2.343,-1.73 -3.413,-2.52 -3.413,-4.897 0,-2.365 2.922,-4.577 5.5,-6.529 2.36,-1.788 4.589,-3.475 4.73,-5.303 C 17.648,7.101 15.151,-4.52 15.044,-5.013 l -0.071,-0.33 -0.335,-0.04 C 14.482,-5.4 13.275,-5.535 11.586,-5.535"
           style="fill:#231f20;fill-opacity:1;fill-rule:nonzero;stroke:none"
           id="path108" />
      </g>
      <g
         id="g110"
         transform="matrix(0.35277777,0,0,-0.35277777,110.73199,95.439006)">
        <path
           d="m 0,0 c 0,0 27.419,16.779 32.876,31.375 0,0 5.866,-3.865 0,-18.37 l 6.82,5.268 c 0,0 3.821,-9.543 -4.228,-18.273 l 7.639,6.548 c 0,0 0.682,-10.914 -6.138,-18.28 l 4.91,2.046 c 0,0 0.683,-12.281 -6.684,-16.781 h 3.138 c 0,0 3.872,-11.081 -12.414,-14.458 h 5.047 c 0,0 -3.046,-10.822 -11.959,-12.823 0,0 -13.187,-18.098 -31.649,-13.096 C -31.103,-61.842 0,0 0,0"
           style="fill:#ffde17;fill-opacity:1;fill-rule:nonzero;stroke:none"
           id="path112" />
      </g>
      <g
         id="g114"
         transform="matrix(0.35277777,0,0,-0.35277777,110.8598,95.556164)">
        <path
           d="m 0,0 c -1.325,-2.666 -23.613,-47.95 -17.249,-62.197 0.915,-2.048 2.344,-3.311 4.369,-3.859 2.175,-0.59 4.279,-0.848 6.296,-0.848 14.625,-0.001 24.732,13.609 24.847,13.766 l 0.104,0.144 0.174,0.039 c 7.345,1.649 10.62,9.624 11.412,11.89 H 20.95 l 4.511,0.934 c 5.645,1.171 9.431,3.39 11.252,6.593 1.688,2.973 1.145,5.969 0.901,6.931 h -4.462 l 1.435,0.876 c 6.062,3.704 6.477,13.075 6.472,15.674 l -6.273,-2.613 1.474,1.591 c 5.429,5.864 6.001,14.127 6.028,16.945 l -6.875,-5.893 -0.655,0.679 c 6.615,7.175 4.984,14.973 4.338,17.172 l -7.674,-5.928 0.654,1.618 C 36.689,24.924 33.883,29.572 32.7,30.891 26.862,16.811 2.172,1.34 0,0 m -6.588,-67.85 c -2.095,0 -4.278,0.269 -6.539,0.882 -2.284,0.618 -3.961,2.094 -4.984,4.385 -6.707,15.015 16.341,61.169 17.327,63.127 l 0.059,0.121 0.116,0.07 c 0.273,0.167 27.343,16.862 32.68,31.138 l 0.207,0.555 0.495,-0.326 c 0.245,-0.161 5.696,-3.952 0.79,-17.358 l 5.978,4.618 0.232,-0.581 C 39.808,18.696 42.685,11.25 38.064,3.489 l 5.093,4.366 0.06,-0.946 c 0.026,-0.424 0.541,-9.833 -5.003,-17.127 l 3.738,1.557 0.037,-0.667 c 0.027,-0.483 0.545,-11.244 -5.675,-16.334 h 1.992 l 0.11,-0.317 c 0.058,-0.164 1.372,-4.044 -0.873,-8.01 C 36,-36.716 33.188,-38.77 29.16,-40.12 h 2.068 l -0.169,-0.601 C 30.933,-41.171 27.87,-51.705 18.918,-53.838 17.77,-55.329 7.695,-67.85 -6.588,-67.85"
           style="fill:#231f20;fill-opacity:1;fill-rule:nonzero;stroke:none"
           id="path116" />
      </g>
      <g
         id="g118"
         transform="matrix(0.35277777,0,0,-0.35277777,109.96202,114.35192)">
        <path
           d="m 0,0 c -6.366,1.864 11.1,15.658 11.1,15.658 0,0 22.048,1.94 22.867,1.666 0.184,-0.06 0.653,-0.856 1.237,-2.098 -1.783,-1.03 -4.098,-1.916 -7.102,-2.539 h 5.046 c 0,0 -3.045,-10.823 -11.959,-12.824 0,0 -14.823,-1.727 -21.189,0.137"
           style="fill:#ffde17;fill-opacity:1;fill-rule:nonzero;stroke:none"
           id="path120" />
      </g>
      <g
         id="g122"
         transform="matrix(0.35277777,0,0,-0.35277777,110.00887,114.19204)">
        <path
           d="m 0,0 c 6.201,-1.815 20.855,-0.138 21.002,-0.12 7.293,1.64 10.57,9.614 11.363,11.881 h -9.004 l 4.512,0.934 c 2.566,0.534 4.778,1.297 6.581,2.274 -0.435,0.89 -0.707,1.317 -0.824,1.461 C 32.383,16.522 19.636,15.492 11.148,14.747 7.458,11.816 -1.61,3.877 -1.033,0.908 -0.98,0.633 -0.814,0.239 0,0 m 8.7,-1.796 c -3.349,0 -6.673,0.218 -8.966,0.889 -1.208,0.354 -1.588,1.085 -1.695,1.635 -0.797,4.103 11.257,13.76 12.634,14.848 l 0.111,0.087 0.141,0.013 c 5.196,0.457 22.217,1.926 23.058,1.643 0.184,-0.06 0.49,-0.162 1.516,-2.345 l 0.185,-0.394 -0.376,-0.217 c -1.1,-0.635 -2.353,-1.189 -3.745,-1.657 H 33.64 L 33.471,12.105 C 33.343,11.652 30.243,0.988 21.16,-1.051 20.738,-1.102 14.679,-1.796 8.7,-1.796"
           style="fill:#231f20;fill-opacity:1;fill-rule:nonzero;stroke:none"
           id="path124" />
      </g>
      <g
         id="g126"
         transform="matrix(0.35277777,0,0,-0.35277777,116.08981,104.77591)">
        <path
           d="m 0,0 c 1.364,0.366 19.917,5.459 20.735,5.459 0.392,0 1.848,-0.462 3.308,-1.14 C 23.081,2.616 21.779,1.082 20.008,0 h 3.138 c 0,0 3.872,-11.081 -12.415,-14.458 l -24.282,-5.911 c 0,0 -3.547,4.911 -1.182,7.912 C -12.368,-9.456 -1.364,-0.366 0,0"
           style="fill:#ffde17;fill-opacity:1;fill-rule:nonzero;stroke:none"
           id="path128" />
      </g>
      <g
         id="g130"
         transform="matrix(0.35277777,0,0,-0.35277777,123.40479,103.0172)">
        <path
           d="m 0,0 c -0.574,-0.041 -7.021,-1.738 -19.151,-5.045 -0.755,-0.205 -1.273,-0.347 -1.462,-0.397 -1.153,-0.309 -12.037,-9.188 -14.484,-12.293 -1.828,-2.321 0.362,-6.068 1.019,-7.082 l 23.962,5.833 c 5.662,1.173 9.447,3.392 11.268,6.595 1.689,2.973 1.146,5.969 0.902,6.931 h -4.461 l 1.433,0.876 c 1.417,0.866 2.628,2.109 3.607,3.701 C 1.313,-0.309 0.228,0 0,0 m -34.483,-25.889 -0.186,0.258 c -0.153,0.212 -3.727,5.236 -1.171,8.481 2.249,2.854 13.311,12.172 14.982,12.621 0.189,0.05 0.706,0.191 1.458,0.396 16.418,4.476 19.02,5.079 19.4,5.079 0.527,0 2.102,-0.531 3.507,-1.183 L 3.972,-0.453 3.72,-0.898 C 2.897,-2.354 1.901,-3.564 0.748,-4.513 h 1.997 l 0.11,-0.316 c 0.058,-0.164 1.373,-4.045 -0.873,-8.011 -1.958,-3.459 -5.959,-5.836 -11.89,-7.066 z"
           style="fill:#231f20;fill-opacity:1;fill-rule:nonzero;stroke:none"
           id="path132" />
      </g>
      <g
         id="g134"
         transform="matrix(0.35277777,0,0,-0.35277777,112.23991,105.25649)">
        <path
           d="m 0,0 c 0.637,1.819 13.823,12.732 13.823,12.732 0,0 15.068,9.695 23.281,10.771 -0.917,-2.523 -2.306,-5.133 -4.41,-7.406 l 4.911,2.047 c 0,0 0.642,-11.609 -6.093,-16.388 L 2.273,-6.685 c 0,0 -2.91,4.867 -2.273,6.685"
           style="fill:#ffde17;fill-opacity:1;fill-rule:nonzero;stroke:none"
           id="path136" />
      </g>
      <g
         id="g138"
         transform="matrix(0.35277777,0,0,-0.35277777,117.21499,100.89983)">
        <path
           d="m 0,0 c -5.062,-4.189 -13.226,-11.272 -13.657,-12.506 -0.387,-1.106 0.985,-4.118 2.051,-5.973 l 28.807,8.317 c 5.468,3.947 5.85,12.748 5.843,15.253 l -6.273,-2.613 1.474,1.59 c 1.668,1.802 3.019,3.982 4.023,6.49 C 14.259,9.06 0.653,0.418 0,0 m -12.048,-19.589 -0.186,0.313 c -0.31,0.517 -3.005,5.112 -2.315,7.083 0.661,1.888 12.608,11.814 13.968,12.939 l 0.046,0.034 c 0.619,0.398 15.252,9.765 23.474,10.842 l 0.771,0.101 -0.265,-0.731 C 22.62,8.722 21.531,6.69 20.196,4.928 l 3.741,1.559 0.038,-0.667 c 0.026,-0.485 0.577,-11.924 -6.292,-16.799 l -0.142,-0.069 z"
           style="fill:#231f20;fill-opacity:1;fill-rule:nonzero;stroke:none"
           id="path140" />
      </g>
      <g
         id="g142"
         transform="matrix(0.35277777,0,0,-0.35277777,113.09017,100.78098)">
        <path
           d="m 0,0 c 1.363,6.412 32.603,24.691 32.603,24.691 0,0 0.424,0.122 1.075,0.199 -0.49,-2.987 -1.832,-6.426 -4.895,-9.747 l 7.64,6.547 c 0,0 0.682,-10.913 -6.139,-18.28 L 4.154,-10.672 c 0,0 -5.518,4.261 -4.154,10.672"
           style="fill:#ffde17;fill-opacity:1;fill-rule:nonzero;stroke:none"
           id="path144" />
      </g>
      <g
         id="g146"
         transform="matrix(0.35277777,0,0,-0.35277777,124.65638,92.225765)">
        <path
           d="m 0,0 c -10.758,-6.299 -31.281,-19.448 -32.324,-24.35 -1.127,-5.296 2.749,-9.119 3.751,-10.004 l 25.777,13.892 c 5.381,5.86 5.948,14.079 5.976,16.887 l -6.875,-5.893 -0.656,0.679 c 2.436,2.642 4,5.619 4.658,8.858 C 0.164,0.041 0.059,0.015 0,0 m -28.678,-35.484 -0.243,0.187 c -0.235,0.182 -5.737,4.519 -4.327,11.145 1.391,6.54 31.544,24.25 32.826,25 l 0.109,0.047 C -0.295,0.9 0.155,1.028 0.837,1.108 L 1.46,1.181 1.358,0.562 C 0.98,-1.736 0.181,-3.911 -1.032,-5.94 l 5.081,4.355 0.059,-0.946 c 0.029,-0.454 0.616,-11.201 -6.263,-18.63 l -0.122,-0.096 z"
           style="fill:#231f20;fill-opacity:1;fill-rule:nonzero;stroke:none"
           id="path148" />
      </g>
      <g
         id="g150"
         transform="matrix(0.35277777,0,0,-0.35277777,112.22371,96.914887)">
        <path
           d="m 0,0 31.164,26.627 c -0.231,-2.481 -0.956,-5.58 -2.517,-9.439 l 6.821,5.269 c 0,0 3.82,-9.543 -4.229,-18.273 C 21.69,-4.001 -5.865,-18.325 -5.865,-18.325 Z"
           style="fill:#ffde17;fill-opacity:1;fill-rule:nonzero;stroke:none"
           id="path152" />
      </g>
      <g
         id="g154"
         transform="matrix(0.35277777,0,0,-0.35277777,112.36807,97.010843)">
        <path
           d="m 0,0 -5.473,-17.098 c 5.068,2.675 27.597,14.725 35.975,21.894 6.593,7.169 4.964,14.954 4.318,17.151 l -7.673,-5.927 0.654,1.618 c 1.194,2.956 1.979,5.679 2.34,8.114 z m -7.074,-19.001 6.256,19.545 0.102,0.087 32.05,27.384 -0.108,-1.16 c -0.223,-2.391 -0.874,-5.072 -1.94,-7.988 l 5.98,4.618 0.232,-0.58 c 0.039,-0.099 3.836,-9.923 -4.32,-18.77 L 31.138,4.096 C 21.657,-4.03 -5.78,-18.33 -6.057,-18.473 Z"
           style="fill:#231f20;fill-opacity:1;fill-rule:nonzero;stroke:none"
           id="path156" />
      </g>
      <g
         id="g158"
         transform="matrix(0.35277777,0,0,-0.35277777,110.73199,95.439006)">
        <path
           d="m 0,0 c 0,0 27.419,16.779 32.876,31.375 0,0 5.866,-3.865 0,-18.37 0,0 -20.599,-23.236 -32.467,-29.375 -3.588,-1.856 -5.322,0.357 -5.977,4.377 C -2.451,-4.873 0,0 0,0"
           style="fill:#ffde17;fill-opacity:1;fill-rule:nonzero;stroke:none"
           id="path160" />
      </g>
      <g
         id="g162"
         transform="matrix(0.35277777,0,0,-0.35277777,108.9402,99.691284)">
        <path
           d="m 0,0 c 0.396,-2.316 1.124,-3.756 2.164,-4.279 0.798,-0.401 1.842,-0.272 3.107,0.383 11.361,5.875 31.096,27.884 32.277,29.207 4.57,11.355 1.774,15.985 0.594,17.302 C 32.304,28.533 7.613,13.062 5.441,11.721 5.05,10.935 2.784,6.351 0,0 m 3.172,-5.453 c -0.517,0 -0.995,0.109 -1.433,0.33 -1.346,0.677 -2.253,2.395 -2.694,5.107 L -0.978,0.122 -0.922,0.25 C 2.165,7.3 4.633,12.217 4.657,12.266 l 0.06,0.12 0.115,0.071 c 0.273,0.167 27.344,16.861 32.681,31.137 l 0.207,0.555 0.495,-0.325 c 0.253,-0.167 6.121,-4.247 0.179,-18.943 L 38.309,24.745 C 37.466,23.793 17.516,1.373 5.705,-4.736 4.782,-5.214 3.935,-5.453 3.172,-5.453"
           style="fill:#231f20;fill-opacity:1;fill-rule:nonzero;stroke:none"
           id="path164" />
      </g>
      <g
         id="g166"
         transform="matrix(0.35277777,0,0,-0.35277777,128.22515,105.71366)">
        <path
           d="m 0,0 c 0.272,0 2.864,-3.684 0.409,-6.139 -2.455,-2.455 -8.526,-4.433 -10.709,-7.298 -2.182,-2.865 -65.002,-52.861 -65.002,-52.861 l -1.637,5.73 74.537,59.236 z"
           style="fill:#ffde17;fill-opacity:1;fill-rule:nonzero;stroke:none"
           id="path168" />
      </g>
      <g
         id="g170"
         transform="matrix(0.35277777,0,0,-0.35277777,128.14592,105.85699)">
        <path
           d="m 0,0 z m -76.173,-60.336 1.356,-4.745 c 21.856,17.398 62.682,50.127 64.367,52.337 1.262,1.658 3.692,2.993 6.041,4.283 1.88,1.032 3.654,2.008 4.709,3.063 0.649,0.649 0.954,1.459 0.904,2.406 -0.066,1.27 -0.723,2.388 -1.051,2.818 L -1.914,-1.32 Z m 0.836,-6.366 -1.918,6.714 0.247,0.196 74.568,59.261 2.543,1.41 h 0.122 c 0.676,0 1.428,-1.798 1.461,-1.874 0.476,-1.151 1.015,-3.338 -0.718,-5.071 -1.15,-1.151 -2.983,-2.158 -4.921,-3.223 -2.264,-1.243 -4.604,-2.529 -5.746,-4.027 -2.193,-2.879 -62.517,-50.903 -65.084,-52.946 z"
           style="fill:#231f20;fill-opacity:1;fill-rule:nonzero;stroke:none"
           id="path172" />
      </g>
      <g
         id="g174"
         transform="matrix(0.35277777,0,0,-0.35277777,104.63624,112.66758)">
        <path
           d="M 0,0 H -28.326 -56.651 L -61.29,-18.007 H -28.326 4.638 Z"
           style="fill:#ed1c24;fill-opacity:1;fill-rule:nonzero;stroke:none"
           id="path176" />
      </g>
      <g
         id="g178"
         transform="matrix(0.35277777,0,0,-0.35277777,83.262882,118.82743)">
        <path
           d="M 0,0 H 64.52 L 60.163,16.915 H 4.357 Z M 65.928,-1.092 H -1.408 l 4.92,19.099 h 57.497 z"
           style="fill:#231f20;fill-opacity:1;fill-rule:nonzero;stroke:none"
           id="path180" />
      </g>
      <g
         id="g182"
         transform="matrix(0.35277777,0,0,-0.35277777,112.03113,92.599745)">
        <path
           d="m 0,0 -19.916,-14.187 c 0,0 -9.822,-6.139 -2.592,-14.733 7.23,-8.594 11.459,-7.776 11.459,-12.55 0,-4.775 -9.959,-8.322 -10.231,-11.868 -0.274,-3.547 2.319,-15.552 2.319,-15.552 0,0 12.413,-1.455 15.142,5.002 l -2.046,2.228 c 0,0 8.594,-0.409 13.505,9.686 l -6.139,-1.364 c 0,0 6.713,3.546 8.881,13.232 l -7.517,-2.456 c 0,0 7.669,4.262 10.367,16.643 l -7.229,-3.956 c 0,0 6.217,10.513 3.312,21.626 l -11.77,-5.666 c 0,0 3.956,6.685 2.455,13.915"
           style="fill:#ffde17;fill-opacity:1;fill-rule:nonzero;stroke:none"
           id="path184" />
      </g>
      <g
         id="g186"
         transform="matrix(0.35277777,0,0,-0.35277777,105.47959,116.7483)">
        <path
           d="m 0,0 c 1.937,-0.163 11.664,-0.714 14.192,4.476 l -2.608,2.839 1.144,-0.05 c 0.327,-0.016 7.854,-0.24 12.603,8.534 l -8.553,-1.901 3.074,1.634 c 0.063,0.033 6.17,3.37 8.443,12.102 l -6.712,-2.193 -0.377,0.863 c 0.073,0.041 7.095,4.082 9.898,15.307 l -7.81,-4.273 0.873,1.479 c 0.061,0.103 5.875,10.126 3.4,20.709 l -12.65,-6.089 0.793,1.342 c 0.037,0.063 3.584,6.174 2.53,12.857 L -1.071,53.88 c -0.066,-0.042 -4.309,-2.747 -4.964,-6.922 -0.368,-2.348 0.46,-4.743 2.46,-7.121 3.233,-3.845 5.857,-5.782 7.773,-7.196 2.367,-1.749 3.797,-2.805 3.797,-5.659 0,-2.835 -2.986,-5.095 -5.875,-7.283 C -0.065,18.044 -2.13,16.481 -2.238,15.078 -2.478,11.968 -0.415,1.969 0,0 m 2.607,-1.06 c -1.69,0 -2.896,0.135 -3.052,0.153 l -0.335,0.04 -0.073,0.33 c -0.105,0.493 -2.602,12.113 -2.328,15.687 0.141,1.829 2.37,3.516 4.731,5.303 2.578,1.952 5.5,4.164 5.5,6.529 0,2.376 -1.07,3.167 -3.413,4.898 -1.954,1.443 -4.63,3.419 -7.936,7.349 -2.185,2.597 -3.084,5.25 -2.669,7.882 0.727,4.603 5.183,7.437 5.372,7.555 l 20.484,14.591 0.146,-0.709 C 20.181,63.026 18.265,57.889 17.182,55.576 l 11.017,5.303 0.145,-0.555 c 2.302,-8.809 -1.075,-17.326 -2.64,-20.59 l 6.782,3.711 -0.22,-1.012 C 30.467,34.181 26.534,29.496 23.995,27.224 l 5.602,1.83 -0.182,-0.811 C 27.951,21.707 24.499,17.925 22.284,16.09 l 4.78,1.061 -0.428,-0.88 C 22.668,8.113 16.24,6.635 13.732,6.374 L 15.306,4.661 15.188,4.381 C 13.2,-0.321 6.572,-1.06 2.607,-1.06"
           style="fill:#231f20;fill-opacity:1;fill-rule:nonzero;stroke:none"
           id="path188" />
      </g>
      <g
         id="g190"
         transform="matrix(0.35277777,0,0,-0.35277777,94.36762,115.2721)">
        <path
           d="M 0,0 H -33.746 V -4.65 H 0 33.746 V 0 Z"
           style="fill:#ed1c24;fill-opacity:1;fill-rule:nonzero;stroke:none"
           id="path192" />
      </g>
      <path
         d="m 82.65561,116.72054 h 23.42409 v -1.25589 H 82.65561 Z m 23.80932,0.38452 H 82.270377 v -2.02529 h 24.194553 z"
         style="fill:#231f20;fill-opacity:1;fill-rule:nonzero;stroke:none;stroke-width:0.352778"
         id="path194" />
      <g
         id="g196"
         transform="matrix(0.35277777,0,0,-0.35277777,94.643563,112.66758)">
        <path
           d="m 0,0 h -22.421 l 6.775,-18.007 H 0 15.646 L 22.421,0 Z"
           style="fill:#ffffff;fill-opacity:1;fill-rule:nonzero;stroke:none"
           id="path198" />
      </g>
      <g
         id="g200"
         transform="matrix(0.35277777,0,0,-0.35277777,89.239431,118.85325)">
        <path
           d="m 0,0 h 30.638 l 6.42,17.062 H -6.42 Z M 31.292,-0.945 H -0.654 l -7.131,18.952 h 46.208 z"
           style="fill:#231f20;fill-opacity:1;fill-rule:nonzero;stroke:none"
           id="path202" />
      </g>
      <g
         id="g204"
         transform="matrix(0.35277777,0,0,-0.35277777,94.643563,116.90264)">
        <path
           d="M 0,0 H -35.374 V -6.002 H 0 35.374 V 0 Z"
           style="fill:#ed1c24;fill-opacity:1;fill-rule:nonzero;stroke:none"
           id="path206" />
      </g>
      <path
         d="M 82.356807,118.82733 H 106.9299 v -1.73214 H 82.356807 Z m 24.958323,0.38523 H 81.971927 v -2.50261 h 25.343203 z"
         style="fill:#231f20;fill-opacity:1;fill-rule:nonzero;stroke:none;stroke-width:0.352778"
         id="path208" />
      <g
         id="g210"
         transform="matrix(0.35277777,0,0,-0.35277777,100.01637,90.562489)">
        <path
           d="m 0,0 c 0,0 27.828,6.73 34.74,3.638 6.911,-3.093 35.105,-36.196 43.835,-39.47 0,0 0.773,6.321 6.366,4.138 5.593,-2.183 4.638,-12.413 0.819,-14.46 C 81.939,-48.2 72.391,-42.88 55.066,-24.328 37.741,-5.775 22.189,-3.865 12.504,-10.686 2.819,-17.507 0,0 0,0"
           style="fill:#ffde17;fill-opacity:1;fill-rule:nonzero;stroke:none"
           id="path212" />
      </g>
      <g
         id="g214"
         transform="matrix(0.35277777,0,0,-0.35277777,108.54781,92.870008)">
        <path
           d="m 0,0 c 9.546,0 20.524,-6.001 31.228,-17.464 21.274,-22.781 28.155,-22.789 30.125,-21.732 1.823,0.976 3.049,4.206 2.851,7.512 -0.087,1.441 -0.612,4.917 -3.618,6.091 -1.45,0.566 -2.665,0.566 -3.61,0.001 -1.766,-1.054 -2.113,-3.729 -2.116,-3.757 l -0.073,-0.595 -0.561,0.211 C 49.377,-27.915 39.057,-17.495 29.075,-7.418 21.031,0.703 13.434,8.374 10.363,9.747 4.143,12.531 -20.08,7.018 -23.638,6.185 c 0.371,-1.891 2.083,-9.41 6.095,-11.1 1.641,-0.691 3.522,-0.301 5.592,1.156 C -8.369,-1.236 -4.332,0 0,0 m 59.742,-40.503 c -5.438,0 -15.434,7.648 -29.205,22.394 -15.209,16.287 -30.889,21.363 -41.944,13.578 -2.355,-1.658 -4.543,-2.081 -6.503,-1.254 -5.057,2.131 -6.674,11.839 -6.74,12.251 L -24.72,6.897 -24.295,7 c 1.143,0.277 28.066,6.732 35.045,3.61 3.23,-1.445 10.889,-9.177 18.997,-17.364 9.109,-9.197 19.392,-19.577 24.288,-21.873 0.227,0.981 0.858,2.892 2.455,3.847 1.21,0.722 2.703,0.745 4.439,0.067 2.475,-0.966 4.012,-3.486 4.218,-6.914 0.222,-3.71 -1.185,-7.244 -3.348,-8.402 -0.59,-0.317 -1.277,-0.474 -2.057,-0.474"
           style="fill:#231f20;fill-opacity:1;fill-rule:nonzero;stroke:none"
           id="path216" />
      </g>
      <path
         d="m 88.469035,90.690829 h -0.728486 v -6.641041 h 0.728486 z"
         style="fill:#ffde17;fill-opacity:1;fill-rule:nonzero;stroke:none;stroke-width:0.352778"
         id="path218" />
      <path
         d="m 87.90706,90.523965 h 0.395111 V 84.216299 H 87.90706 Z m 0.728486,0.333728 h -1.061861 v -6.974769 h 1.061861 z"
         style="fill:#231f20;fill-opacity:1;fill-rule:nonzero;stroke:none;stroke-width:0.352778"
         id="path220" />
      <path
         d="m 91.686721,90.690829 h -0.728486 v -6.641041 h 0.728486 z"
         style="fill:#ffde17;fill-opacity:1;fill-rule:nonzero;stroke:none;stroke-width:0.352778"
         id="path222" />
      <path
         d="m 91.124746,90.523965 h 0.395111 v -6.307666 h -0.395111 z m 0.728486,0.333728 h -1.061861 v -6.974769 h 1.061861 z"
         style="fill:#231f20;fill-opacity:1;fill-rule:nonzero;stroke:none;stroke-width:0.352778"
         id="path224" />
      <path
         d="m 100.81802,90.690829 h 0.72849 v -6.641041 h -0.72849 z"
         style="fill:#ffde17;fill-opacity:1;fill-rule:nonzero;stroke:none;stroke-width:0.352778"
         id="path226" />
      <path
         d="M 100.98488,90.523965 H 101.38 v -6.307666 h -0.39512 z m 0.72849,0.333728 h -1.06221 v -6.974769 h 1.06221 z"
         style="fill:#231f20;fill-opacity:1;fill-rule:nonzero;stroke:none;stroke-width:0.352778"
         id="path228" />
      <path
         d="m 97.600335,90.690829 h 0.728486 v -6.641041 h -0.728486 z"
         style="fill:#ffde17;fill-opacity:1;fill-rule:nonzero;stroke:none;stroke-width:0.352778"
         id="path230" />
      <path
         d="m 97.767199,90.523965 h 0.395111 v -6.307666 h -0.395111 z m 0.728486,0.333728 h -1.062214 v -6.974769 h 1.062214 z"
         style="fill:#231f20;fill-opacity:1;fill-rule:nonzero;stroke:none;stroke-width:0.352778"
         id="path232" />
      <g
         id="g234"
         transform="matrix(0.35277777,0,0,-0.35277777,94.643563,84.049717)">
        <path
           d="M 0,0 H -1.099 V -18.825 H 0 1.099 V 0 Z"
           style="fill:#ffde17;fill-opacity:1;fill-rule:nonzero;stroke:none"
           id="path236" />
      </g>
      <path
         d="m 94.422513,90.523965 h 0.441677 v -6.307666 h -0.441677 z m 0.775405,0.333728 h -1.10878 v -6.974769 h 1.10878 z"
         style="fill:#231f20;fill-opacity:1;fill-rule:nonzero;stroke:none;stroke-width:0.352778"
         id="path238" />
      <g
         id="g240"
         transform="matrix(0.35277777,0,0,-0.35277777,88.104616,74.649424)">
        <path
           d="m 0,0 -4.561,-27.556 c 0,0 0.631,-2.637 2.28,-4.092 H 0 2.28 c 1.65,1.455 2.281,4.092 2.281,4.092 z"
           style="fill:#ffde17;fill-opacity:1;fill-rule:nonzero;stroke:none"
           id="path242" />
      </g>
      <g
         id="g244"
         transform="matrix(0.35277777,0,0,-0.35277777,87.365123,85.647554)">
        <path
           d="M 0,0 H 4.192 C 5.461,1.212 6.055,3.201 6.174,3.642 L 2.096,28.282 -1.982,3.642 C -1.862,3.201 -1.264,1.209 0,0 m 4.555,-0.945 h -4.918 l -0.134,0.118 c -1.741,1.536 -2.4,4.223 -2.427,4.337 L -2.946,3.603 -2.931,3.697 2.096,34.07 7.139,3.603 7.116,3.51 C 7.089,3.396 6.431,0.709 4.689,-0.827 Z"
           style="fill:#231f20;fill-opacity:1;fill-rule:nonzero;stroke:none"
           id="path246" />
      </g>
      <g
         id="g248"
         transform="matrix(0.35277777,0,0,-0.35277777,91.322478,74.649424)">
        <path
           d="m 0,0 -4.561,-27.556 c 0,0 0.631,-2.637 2.28,-4.092 H 0 2.28 c 1.65,1.455 2.281,4.092 2.281,4.092 z"
           style="fill:#ffde17;fill-opacity:1;fill-rule:nonzero;stroke:none"
           id="path250" />
      </g>
      <g
         id="g252"
         transform="matrix(0.35277777,0,0,-0.35277777,90.582844,85.647554)">
        <path
           d="M 0,0 H 4.193 C 5.457,1.209 6.054,3.201 6.175,3.642 L 2.097,28.282 -1.981,3.642 C -1.861,3.201 -1.264,1.209 0,0 m 4.556,-0.945 h -4.919 l -0.134,0.118 C -2.238,0.709 -2.896,3.396 -2.924,3.51 L -2.946,3.603 -2.931,3.697 2.097,34.07 7.139,3.603 7.117,3.51 C 7.089,3.396 6.431,0.709 4.689,-0.827 Z"
           style="fill:#231f20;fill-opacity:1;fill-rule:nonzero;stroke:none"
           id="path254" />
      </g>
      <g
         id="g256"
         transform="matrix(0.35277777,0,0,-0.35277777,101.18255,74.649424)">
        <path
           d="m 0,0 4.561,-27.556 c 0,0 -0.631,-2.637 -2.281,-4.092 H 0 -2.28 c -1.65,1.455 -2.281,4.092 -2.281,4.092 z"
           style="fill:#ffde17;fill-opacity:1;fill-rule:nonzero;stroke:none"
           id="path258" />
      </g>
      <g
         id="g260"
         transform="matrix(0.35277777,0,0,-0.35277777,100.44288,85.647554)">
        <path
           d="M 0,0 H 4.193 C 5.457,1.209 6.055,3.201 6.175,3.642 L 2.097,28.282 -1.981,3.642 C -1.861,3.201 -1.264,1.209 0,0 m 4.556,-0.945 h -4.918 l -0.134,0.118 c -1.742,1.536 -2.4,4.223 -2.428,4.337 L -2.946,3.603 -2.931,3.697 2.097,34.07 7.139,3.603 7.117,3.51 C 7.09,3.396 6.431,0.709 4.689,-0.827 Z"
           style="fill:#231f20;fill-opacity:1;fill-rule:nonzero;stroke:none"
           id="path262" />
      </g>
      <g
         id="g264"
         transform="matrix(0.35277777,0,0,-0.35277777,97.964648,74.649424)">
        <path
           d="m 0,0 4.561,-27.556 c 0,0 -0.632,-2.637 -2.281,-4.092 H 0 -2.281 c -1.649,1.455 -2.28,4.092 -2.28,4.092 z"
           style="fill:#ffde17;fill-opacity:1;fill-rule:nonzero;stroke:none"
           id="path266" />
      </g>
      <g
         id="g268"
         transform="matrix(0.35277777,0,0,-0.35277777,97.225156,85.647554)">
        <path
           d="M 0,0 H 4.192 C 5.461,1.212 6.055,3.201 6.174,3.642 L 2.096,28.282 -1.982,3.642 C -1.862,3.201 -1.264,1.209 0,0 m 4.555,-0.945 h -4.918 l -0.134,0.118 c -1.741,1.536 -2.4,4.223 -2.427,4.337 L -2.946,3.603 -2.931,3.697 2.096,34.07 7.139,3.603 7.116,3.51 C 7.089,3.396 6.431,0.709 4.688,-0.827 Z"
           style="fill:#231f20;fill-opacity:1;fill-rule:nonzero;stroke:none"
           id="path270" />
      </g>
      <g
         id="g272"
         transform="matrix(0.35277777,0,0,-0.35277777,94.643563,74.649424)">
        <path
           d="m 0,0 -4.854,-27.556 c 0,0 0.672,-2.637 2.427,-4.092 H 0 2.426 c 1.756,1.455 2.427,4.092 2.427,4.092 z"
           style="fill:#ffde17;fill-opacity:1;fill-rule:nonzero;stroke:none"
           id="path274" />
      </g>
      <g
         id="g276"
         transform="matrix(0.35277777,0,0,-0.35277777,93.849284,85.647554)">
        <path
           d="M 0,0 H 4.502 C 5.85,1.204 6.489,3.191 6.621,3.644 L 2.251,28.452 -2.118,3.644 C -1.986,3.191 -1.348,1.204 0,0 m 4.849,-0.945 h -5.195 l -0.131,0.109 C -2.329,0.699 -3.031,3.389 -3.06,3.503 L -3.085,3.602 2.251,33.9 7.588,3.602 7.562,3.503 C 7.534,3.389 6.832,0.699 4.979,-0.836 Z"
           style="fill:#231f20;fill-opacity:1;fill-rule:nonzero;stroke:none"
           id="path278" />
      </g>
      <g
         id="g280"
         transform="matrix(0.35277777,0,0,-0.35277777,99.711463,93.03278)">
        <path
           d="M 0,0 -14.366,1.165 -28.732,0 -38.963,-4.775 v -50.883 h 24.597 24.597 v 50.883 z"
           style="fill:#ed1c24;fill-opacity:1;fill-rule:nonzero;stroke:none"
           id="path282" />
      </g>
      <g
         id="g284"
         transform="matrix(0.35277777,0,0,-0.35277777,86.158799,112.475)">
        <path
           d="M 0,0 H 48.103 V 49.989 L 38.274,54.575 24.051,55.729 9.827,54.575 0,49.989 Z M 49.193,-1.092 H -1.091 v 51.777 l 10.634,4.962 14.508,1.177 0.044,-0.004 14.464,-1.173 10.634,-4.962 z"
           style="fill:#231f20;fill-opacity:1;fill-rule:nonzero;stroke:none"
           id="path286" />
      </g>
      <g
         id="g288"
         transform="matrix(0.35277777,0,0,-0.35277777,95.524661,93.03278)">
        <path
           d="M 0,0 -2.498,0.202 -4.996,0 -15.227,-4.775 v -50.883 h 12.729 12.729 v 50.883 z"
           style="fill:#ed1c24;fill-opacity:1;fill-rule:nonzero;stroke:none"
           id="path290" />
      </g>
      <g
         id="g292"
         transform="matrix(0.35277777,0,0,-0.35277777,90.345636,112.475)">
        <path
           d="M 0,0 H 24.366 V 49.989 L 14.539,54.575 12.183,54.767 9.827,54.575 0,49.989 Z M 25.457,-1.092 H -1.091 v 51.777 l 10.634,4.962 2.64,0.214 2.639,-0.214 10.635,-4.962 z"
           style="fill:#231f20;fill-opacity:1;fill-rule:nonzero;stroke:none"
           id="path294" />
      </g>
      <g
         id="g296"
         transform="matrix(0.35277777,0,0,-0.35277777,103.50936,94.440963)">
        <path
           d="m 0,0 -24.134,21.453 -0.997,0.818 -0.997,-0.818 L -50.263,0 -51.911,-1.465 h 26.78 26.779 z"
           style="fill:#ed1c24;fill-opacity:1;fill-rule:nonzero;stroke:none"
           id="path298" />
      </g>
      <g
         id="g300"
         transform="matrix(0.35277777,0,0,-0.35277777,85.702516,94.765342)">
        <path
           d="M 0,0 H 50.689 L 25.979,21.964 25.345,22.485 24.694,21.95 Z M 53.559,-1.091 H -2.87 l 26.855,23.871 1.36,1.116 1.343,-1.102 z"
           style="fill:#231f20;fill-opacity:1;fill-rule:nonzero;stroke:none"
           id="path302" />
      </g>
      <g
         id="g304"
         transform="matrix(0.35277777,0,0,-0.35277777,95.740667,94.957923)">
        <path
           d="M 0,0 -11.641,11.641 -13.195,10.087 -3.108,0 Z"
           style="fill:#ed1c24;fill-opacity:1;fill-rule:nonzero;stroke:none"
           id="path306" />
      </g>
      <g
         id="g308"
         transform="matrix(0.35277777,0,0,-0.35277777,94.723997,94.765342)">
        <path
           d="M 0,0 H 1.564 L -8.759,10.323 -9.541,9.541 Z m 4.199,-1.091 h -4.651 l -10.632,10.632 2.325,2.326 z"
           style="fill:#231f20;fill-opacity:1;fill-rule:nonzero;stroke:none"
           id="path310" />
      </g>
      <g
         id="g312"
         transform="matrix(0.35277777,0,0,-0.35277777,94.642717,94.957923)">
        <path
           d="M 0,0 10.087,10.087 8.533,11.641 -3.108,0 Z"
           style="fill:#ed1c24;fill-opacity:1;fill-rule:nonzero;stroke:none"
           id="path314" />
      </g>
      <g
         id="g316"
         transform="matrix(0.35277777,0,0,-0.35277777,94.011033,94.765342)">
        <path
           d="m 0,0 h 1.565 l 9.541,9.541 -0.782,0.782 z m 2.017,-1.091 h -4.652 l 12.959,12.958 2.325,-2.326 z"
           style="fill:#231f20;fill-opacity:1;fill-rule:nonzero;stroke:none"
           id="path318" />
      </g>
      <g
         id="g320"
         transform="matrix(0.35277777,0,0,-0.35277777,94.255825,86.904818)">
        <path
           d="M 0,0 V -22.828 H 1.099 2.198 V 0 L 2.096,0.09 1.099,0.909 0.102,0.09 Z"
           style="fill:#ed1c24;fill-opacity:1;fill-rule:nonzero;stroke:none"
           id="path322" />
      </g>
      <g
         id="g324"
         transform="matrix(0.35277777,0,0,-0.35277777,94.448407,94.765342)">
        <path
           d="M 0,0 H 1.106 V 22.031 L 0.553,22.485 0,22.03 Z m 2.198,-1.091 h -3.289 v 23.618 l 0.285,0.253 1.359,1.116 1.645,-1.369 z"
           style="fill:#231f20;fill-opacity:1;fill-rule:nonzero;stroke:none"
           id="path326" />
      </g>
      <g
         id="g328"
         transform="matrix(0.35277777,0,0,-0.35277777,94.643563,84.787658)">
        <path
           d="m 0,0 -33.418,-28.374 4.001,-6.002 L 0,-8.73 l 29.417,-25.646 4.001,6.002 z"
           style="fill:#ed1c24;fill-opacity:1;fill-rule:nonzero;stroke:none"
           id="path330" />
      </g>
      <g
         id="g332"
         transform="matrix(0.35277777,0,0,-0.35277777,94.643563,87.612102)">
        <path
           d="m 0,0 29.307,-25.551 3.388,5.082 L 0,7.291 l -32.695,-27.76 3.387,-5.082 z M 29.526,-27.189 0,-1.448 -29.527,-27.189 -34.142,-20.267 0,8.723 34.142,-20.267 Z"
           style="fill:#231f20;fill-opacity:1;fill-rule:nonzero;stroke:none"
           id="path334" />
      </g>
      <g
         id="g336"
         transform="matrix(0.35277777,0,0,-0.35277777,94.643563,119.02001)">
        <path
           d="M 0,0 H -43.422 V -6.002 H 0 43.422 V 0 Z"
           style="fill:#ed1c24;fill-opacity:1;fill-rule:nonzero;stroke:none"
           id="path338" />
      </g>
      <path
         d="M 79.517652,120.94505 H 109.7694 v -1.73249 H 79.517652 Z m 30.636988,0.38488 H 79.132419 v -2.5026 h 31.022221 z"
         style="fill:#231f20;fill-opacity:1;fill-rule:nonzero;stroke:none;stroke-width:0.352778"
         id="path340" />
      <g
         id="g342"
         transform="matrix(0.35277777,0,0,-0.35277777,90.080877,121.45845)">
        <path
           d="m 0,0 -9.018,-6.095 v -16.731 l 6.005,-7.821 H 0 l 3.604,3.046 v 25.055 z"
           style="fill:#ffde17;fill-opacity:1;fill-rule:nonzero;stroke:none"
           id="path344" />
      </g>
      <g
         id="g346"
         transform="matrix(0.35277777,0,0,-0.35277777,89.100225,132.10345)">
        <path
           d="M 0,0 H 2.607 L 5.912,2.793 V 27.384 L 2.774,29.601 -5.765,23.829 V 7.509 Z M 2.953,-0.945 H -0.466 L -6.71,7.187 V 24.331 L 2.786,30.75 6.857,27.873 V 2.354 Z"
           style="fill:#231f20;fill-opacity:1;fill-rule:nonzero;stroke:none"
           id="path348" />
      </g>
      <g
         id="g350"
         transform="matrix(0.35277777,0,0,-0.35277777,93.060367,121.45845)">
        <path
           d="m 0,0 -9.018,-6.095 v -16.731 l 6.005,-7.821 H 0 l 3.604,3.046 v 25.055 z"
           style="fill:#ffde17;fill-opacity:1;fill-rule:nonzero;stroke:none"
           id="path352" />
      </g>
      <g
         id="g354"
         transform="matrix(0.35277777,0,0,-0.35277777,92.079715,132.10345)">
        <path
           d="M 0,0 H 2.607 L 5.912,2.793 V 27.384 L 2.774,29.601 -5.765,23.829 V 7.509 Z M 2.953,-0.945 H -0.466 L -6.71,7.187 V 24.331 L 2.786,30.75 6.857,27.873 V 2.354 Z"
           style="fill:#231f20;fill-opacity:1;fill-rule:nonzero;stroke:none"
           id="path356" />
      </g>
      <g
         id="g358"
         transform="matrix(0.35277777,0,0,-0.35277777,95.634022,121.45845)">
        <path
           d="m 0,0 -9.018,-6.095 v -16.731 l 6.006,-7.821 H 0 l 3.604,3.046 v 25.055 z"
           style="fill:#ffde17;fill-opacity:1;fill-rule:nonzero;stroke:none"
           id="path360" />
      </g>
      <g
         id="g362"
         transform="matrix(0.35277777,0,0,-0.35277777,94.65337,132.10345)">
        <path
           d="M 0,0 H 2.607 L 5.912,2.793 V 27.384 L 2.774,29.601 -5.765,23.829 V 7.509 Z M 2.953,-0.945 H -0.465 L -6.71,7.187 V 24.331 L 2.786,30.75 6.857,27.873 V 2.354 Z"
           style="fill:#231f20;fill-opacity:1;fill-rule:nonzero;stroke:none"
           id="path364" />
      </g>
      <g
         id="g366"
         transform="matrix(0.35277777,0,0,-0.35277777,98.613513,121.45845)">
        <path
           d="m 0,0 -9.018,-6.095 v -16.731 l 6.006,-7.821 H 0 l 3.604,3.046 v 25.055 z"
           style="fill:#ffde17;fill-opacity:1;fill-rule:nonzero;stroke:none"
           id="path368" />
      </g>
      <g
         id="g370"
         transform="matrix(0.35277777,0,0,-0.35277777,97.633037,132.10345)">
        <path
           d="M 0,0 H 2.606 L 5.911,2.793 V 27.384 L 2.773,29.601 -5.766,23.829 V 7.509 Z M 2.952,-0.945 H -0.466 L -6.711,7.187 V 24.331 L 2.785,30.75 6.856,27.873 V 2.354 Z"
           style="fill:#231f20;fill-opacity:1;fill-rule:nonzero;stroke:none"
           id="path372" />
      </g>
      <g
         id="g374"
         transform="matrix(0.35277777,0,0,-0.35277777,101.11605,121.45845)">
        <path
           d="m 0,0 -9.018,-6.095 v -16.731 l 6.005,-7.821 H 0 l 3.604,3.046 v 25.055 z"
           style="fill:#ffde17;fill-opacity:1;fill-rule:nonzero;stroke:none"
           id="path376" />
      </g>
      <g
         id="g378"
         transform="matrix(0.35277777,0,0,-0.35277777,100.13522,132.10345)">
        <path
           d="M 0,0 H 2.607 L 5.912,2.793 V 27.384 L 2.774,29.601 -5.765,23.829 V 7.509 Z M 2.953,-0.945 H -0.466 L -6.71,7.187 V 24.331 L 2.786,30.75 6.857,27.873 V 2.354 Z"
           style="fill:#231f20;fill-opacity:1;fill-rule:nonzero;stroke:none"
           id="path380" />
      </g>
      <g
         id="g382"
         transform="matrix(0.35277777,0,0,-0.35277777,141.90838,76.944702)">
        <path
           d="m 0,0 c -0.554,0.218 -57.222,22.149 -133.98,22.149 -76.898,0 -133.419,-21.928 -133.981,-22.15 l -14.935,-5.927 v 96.073 l 5.267,3.185 c 1.802,1.089 45.268,26.674 143.649,26.674 98.397,0 141.849,-25.586 143.651,-26.674 l 5.267,-3.185 V -5.928 Z"
           style="fill:#ffde17;fill-opacity:1;fill-rule:nonzero;stroke:none"
           id="path384" />
      </g>
      <g
         id="g386"
         transform="matrix(0.35277777,0,0,-0.35277777,94.643563,38.459893)">
        <path
           d="m 0,0 c -96.49,0 -138.004,-25.101 -138.004,-25.101 v -73.846 c 0,0 57.743,22.918 138.004,22.918 80.261,0 138.003,-22.918 138.003,-22.918 v 73.846 C 138.003,-25.101 96.49,0 0,0"
           style="fill:#231f20;fill-opacity:1;fill-rule:nonzero;stroke:none"
           id="path388" />
      </g>
      <g
         id="g390"
         transform="matrix(0.35277777,0,0,-0.35277777,52.163122,52.048893)">
        <path
           d="m 0,0 8.141,-32.138 15.238,3.86 c 1.215,0.307 2.236,0.192 3.063,-0.346 0.828,-0.539 1.377,-1.34 1.646,-2.404 0.275,-1.084 0.177,-2.044 -0.294,-2.879 -0.471,-0.836 -1.322,-1.409 -2.554,-1.721 L 7.092,-40.225 c -1.637,-0.414 -2.923,-0.281 -3.859,0.401 -0.936,0.681 -1.648,1.987 -2.136,3.914 l -8.614,34.006 c -0.458,1.807 -0.46,3.249 -0.005,4.326 0.455,1.077 1.238,1.756 2.352,2.038 1.13,0.287 2.159,0.072 3.086,-0.645 C -1.158,3.1 -0.462,1.828 0,0"
           style="fill:#ffde17;fill-opacity:1;fill-rule:nonzero;stroke:none"
           id="path392" />
      </g>
      <g
         id="g394"
         transform="matrix(0.35277777,0,0,-0.35277777,71.27514,54.537987)">
        <path
           d="m 0,0 c -0.559,3.288 -1.49,6.061 -2.792,8.319 -1.302,2.258 -2.885,3.864 -4.751,4.818 -1.867,0.954 -3.873,1.249 -6.017,0.884 -1.528,-0.26 -2.881,-0.842 -4.06,-1.746 -1.18,-0.905 -2.126,-2.09 -2.839,-3.556 -0.713,-1.466 -1.167,-3.261 -1.362,-5.384 -0.195,-2.125 -0.077,-4.452 0.353,-6.984 0.434,-2.554 1.096,-4.815 1.988,-6.786 0.891,-1.971 1.945,-3.551 3.163,-4.741 1.217,-1.191 2.523,-2.014 3.916,-2.47 1.392,-0.457 2.853,-0.555 4.38,-0.296 1.957,0.333 3.655,1.22 5.097,2.663 1.44,1.443 2.439,3.461 2.995,6.057 C 0.627,-6.628 0.604,-3.553 0,0 m -14.79,21.25 c 3.914,0.666 7.434,0.292 10.56,-1.12 3.127,-1.412 5.708,-3.736 7.741,-6.973 C 5.544,9.919 6.96,5.953 7.758,1.256 8.349,-2.216 8.49,-5.438 8.184,-8.411 c -0.307,-2.973 -1.073,-5.634 -2.297,-7.986 -1.225,-2.352 -2.894,-4.274 -5.006,-5.768 -2.112,-1.493 -4.653,-2.493 -7.621,-2.997 -2.952,-0.502 -5.692,-0.384 -8.218,0.352 -2.526,0.736 -4.746,2.003 -6.658,3.801 -1.913,1.796 -3.514,4.077 -4.805,6.842 -1.29,2.764 -2.223,5.831 -2.795,9.2 -0.587,3.451 -0.709,6.688 -0.367,9.709 0.343,3.02 1.132,5.676 2.368,7.966 1.235,2.291 2.894,4.164 4.977,5.621 2.083,1.457 4.566,2.431 7.448,2.921"
           style="fill:#ffde17;fill-opacity:1;fill-rule:nonzero;stroke:none"
           id="path396" />
      </g>
      <g
         id="g398"
         transform="matrix(0.35277777,0,0,-0.35277777,89.144675,54.388303)">
        <path
           d="m 0,0 0.652,-8.707 c 0.087,-1.157 0.061,-2.088 -0.078,-2.794 -0.14,-0.707 -0.445,-1.358 -0.915,-1.954 -0.47,-0.596 -1.085,-1.183 -1.845,-1.758 -2.197,-1.661 -4.337,-2.912 -6.421,-3.754 -2.085,-0.841 -4.385,-1.356 -6.902,-1.545 -2.934,-0.219 -5.647,0.117 -8.14,1.011 -2.494,0.893 -4.667,2.298 -6.522,4.216 -1.854,1.917 -3.346,4.298 -4.476,7.142 -1.129,2.845 -1.829,6.064 -2.098,9.659 -0.265,3.532 -0.065,6.797 0.601,9.797 0.666,3 1.781,5.586 3.347,7.76 1.565,2.174 3.539,3.895 5.922,5.165 2.384,1.269 5.139,2.02 8.263,2.254 2.569,0.193 4.874,-0.045 6.914,-0.712 2.04,-0.669 3.722,-1.575 5.048,-2.722 1.325,-1.147 2.352,-2.39 3.081,-3.726 0.728,-1.338 1.132,-2.544 1.213,-3.618 0.087,-1.156 -0.2,-2.17 -0.859,-3.04 -0.659,-0.87 -1.492,-1.342 -2.498,-1.418 -0.557,-0.041 -1.102,0.073 -1.637,0.345 -0.536,0.272 -0.998,0.673 -1.386,1.205 -1.088,1.705 -1.996,2.986 -2.723,3.847 -0.729,0.859 -1.675,1.557 -2.841,2.092 -1.166,0.536 -2.618,0.739 -4.353,0.609 -1.788,-0.134 -3.357,-0.621 -4.709,-1.459 -1.35,-0.839 -2.473,-1.993 -3.367,-3.462 -0.894,-1.469 -1.529,-3.235 -1.907,-5.299 -0.378,-2.065 -0.474,-4.325 -0.29,-6.783 0.399,-5.33 1.735,-9.353 4.007,-12.07 2.273,-2.718 5.248,-3.938 8.928,-3.662 1.788,0.134 3.447,0.538 4.976,1.214 1.529,0.675 3.062,1.589 4.599,2.744 l -0.552,7.374 -5.99,-0.449 c -1.44,-0.108 -2.549,0.069 -3.325,0.53 -0.777,0.461 -1.211,1.311 -1.304,2.551 -0.076,1.012 0.17,1.871 0.736,2.579 0.567,0.707 1.379,1.1 2.439,1.18 l 8.774,0.657 C -4.562,5.08 -3.642,5.034 -2.878,4.863 -2.115,4.691 -1.474,4.231 -0.955,3.48 -0.436,2.729 -0.118,1.569 0,0"
           style="fill:#ffde17;fill-opacity:1;fill-rule:nonzero;stroke:none"
           id="path400" />
      </g>
      <g
         id="g402"
         transform="matrix(0.35277777,0,0,-0.35277777,92.084725,59.255367)">
        <path
           d="m 0,0 -0.284,35.887 c -0.014,1.864 0.331,3.265 1.037,4.203 0.707,0.938 1.626,1.411 2.757,1.42 1.167,0.009 2.115,-0.445 2.844,-1.361 0.729,-0.916 1.102,-2.316 1.117,-4.201 L 7.754,0.062 C 7.77,-1.824 7.419,-3.235 6.705,-4.173 5.99,-5.11 5.048,-5.584 3.882,-5.593 2.769,-5.603 1.847,-5.138 1.117,-4.202 0.387,-3.265 0.015,-1.864 0,0"
           style="fill:#ffde17;fill-opacity:1;fill-rule:nonzero;stroke:none"
           id="path404" />
      </g>
      <g
         id="g406"
         transform="matrix(0.35277777,0,0,-0.35277777,108.16194,56.62054)">
        <path
           d="m 0,0 c -0.143,-2.751 -0.867,-5.192 -2.172,-7.323 -1.305,-2.131 -3.137,-3.758 -5.495,-4.879 -2.359,-1.122 -5.112,-1.601 -8.259,-1.438 -3.772,0.197 -6.84,1.207 -9.203,3.03 -1.675,1.311 -3.003,3.014 -3.983,5.108 -0.981,2.094 -1.421,4.103 -1.321,6.027 0.058,1.117 0.434,2.057 1.127,2.82 0.694,0.761 1.544,1.117 2.553,1.064 0.816,-0.042 1.491,-0.388 2.024,-1.038 0.533,-0.65 0.967,-1.596 1.304,-2.837 0.411,-1.474 0.874,-2.711 1.389,-3.713 0.514,-1.002 1.267,-1.844 2.261,-2.529 0.993,-0.684 2.323,-1.069 3.992,-1.156 2.295,-0.119 4.192,0.42 5.693,1.617 1.5,1.198 2.3,2.748 2.399,4.651 0.078,1.511 -0.246,2.757 -0.969,3.738 -0.726,0.982 -1.688,1.752 -2.887,2.313 -1.2,0.56 -2.811,1.172 -4.833,1.837 -2.707,0.909 -4.96,1.923 -6.758,3.043 -1.798,1.121 -3.194,2.593 -4.188,4.418 -0.995,1.826 -1.424,4.052 -1.287,6.679 0.13,2.503 0.819,4.697 2.068,6.582 1.247,1.884 2.985,3.293 5.213,4.225 2.228,0.931 4.81,1.321 7.748,1.168 2.347,-0.122 4.358,-0.574 6.034,-1.356 1.676,-0.782 3.05,-1.776 4.12,-2.983 1.07,-1.207 1.833,-2.455 2.289,-3.744 0.455,-1.289 0.653,-2.534 0.591,-3.733 -0.057,-1.097 -0.435,-2.068 -1.133,-2.912 -0.697,-0.846 -1.533,-1.243 -2.506,-1.193 -0.886,0.046 -1.546,0.345 -1.98,0.897 -0.434,0.551 -0.889,1.441 -1.364,2.668 -0.607,1.754 -1.371,3.137 -2.294,4.149 -0.925,1.013 -2.464,1.575 -4.619,1.687 -1.999,0.104 -3.639,-0.335 -4.919,-1.315 -1.28,-0.981 -1.957,-2.206 -2.033,-3.675 -0.048,-0.911 0.12,-1.707 0.502,-2.391 0.382,-0.684 0.927,-1.282 1.632,-1.796 0.705,-0.514 1.425,-0.925 2.159,-1.232 0.733,-0.308 1.947,-0.766 3.641,-1.372 2.124,-0.712 4.041,-1.476 5.751,-2.29 C -6.004,12 -4.563,11.044 -3.392,9.946 -2.22,8.848 -1.332,7.49 -0.728,5.872 -0.123,4.253 0.119,2.296 0,0"
           style="fill:#ffde17;fill-opacity:1;fill-rule:nonzero;stroke:none"
           id="path408" />
      </g>
      <g
         id="g410"
         transform="matrix(0.35277777,0,0,-0.35277777,120.33658,49.512103)">
        <path
           d="m 0,0 -8.389,1.085 -4.247,-32.818 c -0.244,-1.89 -0.78,-3.246 -1.605,-4.068 -0.826,-0.823 -1.801,-1.162 -2.923,-1.016 -1.139,0.147 -2.007,0.729 -2.605,1.746 -0.596,1.018 -0.773,2.461 -0.532,4.33 l 4.247,32.818 -8.39,1.086 c -1.312,0.17 -2.244,0.639 -2.792,1.411 -0.551,0.771 -0.752,1.72 -0.606,2.851 0.152,1.171 0.604,2.052 1.356,2.644 0.752,0.592 1.758,0.806 3.019,0.643 L 0.978,7.55 C 2.307,7.377 3.25,6.9 3.807,6.118 4.364,5.335 4.569,4.379 4.423,3.25 4.276,2.12 3.831,1.253 3.086,0.65 2.341,0.047 1.312,-0.17 0,0"
           style="fill:#ffde17;fill-opacity:1;fill-rule:nonzero;stroke:none"
           id="path412" />
      </g>
      <g
         id="g414"
         transform="matrix(0.35277777,0,0,-0.35277777,121.80488,61.640568)">
        <path
           d="m 0,0 6.57,35.281 c 0.342,1.833 0.949,3.142 1.822,3.928 0.872,0.786 1.864,1.075 2.976,0.868 1.147,-0.213 1.99,-0.84 2.532,-1.878 0.541,-1.039 0.639,-2.485 0.294,-4.338 L 7.623,-1.42 C 7.278,-3.273 6.665,-4.591 5.784,-5.376 4.903,-6.16 3.89,-6.445 2.743,-6.231 1.647,-6.027 0.831,-5.396 0.294,-4.337 -0.244,-3.279 -0.342,-1.833 0,0"
           style="fill:#ffde17;fill-opacity:1;fill-rule:nonzero;stroke:none"
           id="path416" />
      </g>
      <g
         id="g418"
         transform="matrix(0.35277777,0,0,-0.35277777,133.16647,51.042771)">
        <path
           d="m 0,0 -3.94,-15.477 19.413,14.552 c 0.933,0.702 1.703,1.201 2.307,1.496 0.605,0.295 1.322,0.337 2.148,0.127 1.079,-0.275 1.856,-0.874 2.331,-1.796 0.474,-0.923 0.574,-1.926 0.299,-3.01 -0.333,-1.306 -1.228,-2.456 -2.685,-3.453 l -11.757,-7.972 5.957,-20.626 c 0.425,-1.434 0.704,-2.664 0.838,-3.693 0.133,-1.027 0.088,-1.983 -0.138,-2.866 -0.25,-0.984 -0.792,-1.755 -1.626,-2.312 -0.833,-0.557 -1.805,-0.694 -2.919,-0.41 -1.046,0.266 -1.831,0.749 -2.353,1.448 -0.522,0.7 -0.898,1.549 -1.129,2.549 -0.23,0.999 -0.432,1.904 -0.601,2.717 l -4.742,18.522 -7.934,-5.451 -2.323,-9.123 c -0.471,-1.847 -1.174,-3.127 -2.11,-3.84 -0.935,-0.712 -1.961,-0.927 -3.074,-0.644 -0.642,0.163 -1.206,0.521 -1.693,1.073 -0.49,0.551 -0.807,1.21 -0.954,1.974 -0.092,0.622 -0.07,1.311 0.069,2.067 0.138,0.754 0.387,1.835 0.744,3.24 l 8.357,32.822 c 0.46,1.807 1.138,3.076 2.035,3.81 0.896,0.734 1.917,0.955 3.065,0.663 1.13,-0.288 1.932,-0.968 2.404,-2.039 C 0.461,3.276 0.466,1.827 0,0"
           style="fill:#ffde17;fill-opacity:1;fill-rule:nonzero;stroke:none"
           id="path420" />
      </g>
      <g
         id="g422"
         transform="matrix(0.35277777,0,0,-0.35277777,135.8309,113.51439)">
        <path
           d="m 0,0 c 0.092,3.273 -2.91,5.456 -2.91,5.456 l -8.094,7.003 c 0,0 0.364,-7.275 -2.455,-9.276 -2.819,-2.001 -4.002,-2.82 -4.002,-2.82 0,0 -2.728,4.366 -7.912,3.366 -5.184,-1 -8.458,-5.821 -7.003,-9.003 1.455,-3.184 5.002,-9.732 7.458,-11.005 2.455,-1.273 6.002,-3.456 4.911,-6.275 -1.092,-2.819 -5.639,0.182 -5.639,0.182 0,0 -5.586,3.76 -10.549,3.728 -10.321,-0.064 -12.096,-8.821 -11.55,-11.003 0.546,-2.183 0.131,-6.522 0.131,-6.522 0,0 -31.961,-29.856 -68.521,-32.311 -36.559,2.455 -68.52,32.311 -68.52,32.311 0,0 -0.415,4.339 0.131,6.522 0.545,2.182 -1.229,10.939 -11.55,11.003 -4.963,0.032 -10.55,-3.728 -10.55,-3.728 0,0 -4.547,-3.001 -5.638,-0.182 -1.092,2.819 2.455,5.002 4.911,6.275 2.455,1.273 6.002,7.821 7.457,11.005 1.455,3.182 -1.818,8.003 -7.003,9.003 -5.183,1 -7.912,-3.366 -7.912,-3.366 0,0 -1.182,0.819 -4.001,2.82 -2.819,2.001 -2.456,9.276 -2.456,9.276 l -8.093,-7.003 c 0,0 -3.002,-2.183 -2.911,-5.456 0.091,-3.274 3.638,-3.729 3.638,-3.729 0,0 -1.455,-3.456 0,-6.093 1.455,-2.637 8.458,3.819 8.458,3.819 l 6.275,-7.457 c 0,0 -8.185,-3.728 -10.731,-8.094 -2.547,-4.365 0.454,-6.457 2.273,-8.821 1.819,-2.365 7.912,0.182 11.823,2.273 3.91,2.092 7.094,-2.637 7.639,-7.821 0.546,-5.183 -9.68,-13.251 -9.68,-13.251 36.013,-48.291 96.44,-51.656 96.44,-51.656 0,0 60.427,3.365 96.441,51.656 0,0 -10.226,8.068 -9.68,13.251 0.545,5.184 3.728,9.913 7.639,7.821 3.911,-2.091 10.004,-4.638 11.823,-2.273 1.818,2.364 4.819,4.456 2.273,8.821 -2.547,4.366 -10.731,8.094 -10.731,8.094 l 6.275,7.457 c 0,0 7.002,-6.456 8.457,-3.819 1.455,2.637 0,6.093 0,6.093 0,0 3.547,0.455 3.638,3.729"
           style="fill:#ffffff;fill-opacity:1;fill-rule:nonzero;stroke:none"
           id="path424" />
      </g>
      <g
         id="g426"
         transform="matrix(0.35277777,0,0,-0.35277777,61.104346,130.8949)">
        <path
           d="m 0,0 c 18.49,-24.558 43.437,-37.114 61.154,-43.329 18.896,-6.627 33.762,-7.638 34.534,-7.687 0.773,0.049 15.666,1.065 34.569,7.699 17.707,6.215 42.639,18.771 61.12,43.317 -1.962,1.615 -9.982,8.538 -9.471,13.401 0.407,3.865 2.121,7.131 4.369,8.323 1.29,0.682 2.699,0.657 4.071,-0.078 4.451,-2.379 9.713,-4.265 11.133,-2.421 0.297,0.388 0.628,0.77 0.948,1.14 1.662,1.923 3.231,3.739 1.286,7.073 -2.429,4.165 -10.406,7.837 -10.486,7.874 l -0.655,0.297 7.106,8.444 0.42,-0.387 c 1.944,-1.791 5.599,-4.547 7.126,-4.293 0.227,0.036 0.377,0.14 0.484,0.336 1.307,2.369 -0.012,5.586 -0.025,5.619 l -0.277,0.66 0.71,0.092 c 0.125,0.017 3.085,0.444 3.162,3.202 0.081,2.939 -2.659,4.981 -2.686,5.001 l -7.212,6.238 c -0.032,-2.241 -0.389,-6.875 -2.7,-8.515 -2.824,-2.004 -4.007,-2.823 -4.007,-2.823 l -0.47,-0.327 -0.303,0.486 c -0.104,0.165 -2.606,4.034 -7.346,3.119 -2.726,-0.526 -5.135,-2.243 -6.287,-4.48 -0.698,-1.355 -0.813,-2.691 -0.324,-3.761 1.624,-3.551 5.018,-9.609 7.213,-10.747 1.619,-0.839 6.547,-3.395 5.169,-6.956 -0.278,-0.717 -0.783,-1.21 -1.462,-1.427 -1.925,-0.614 -4.678,1.147 -4.986,1.349 -0.058,0.04 -5.469,3.639 -10.188,3.639 h -0.058 c -3.92,-0.024 -7.038,-1.386 -9.018,-3.938 -1.925,-2.482 -2.256,-5.385 -2.006,-6.388 0.563,-2.248 0.164,-6.524 0.146,-6.705 l -0.021,-0.206 -0.15,-0.141 c -0.321,-0.301 -32.523,-30.017 -68.857,-32.458 l -0.037,-0.002 -0.036,0.002 C 59.319,-17.317 27.117,12.399 26.795,12.7 l -0.15,0.141 -0.02,0.206 c -0.018,0.181 -0.417,4.457 0.145,6.705 0.251,1.003 -0.081,3.906 -2.006,6.388 -1.98,2.552 -5.098,3.914 -9.018,3.938 h -0.058 c -4.726,0 -10.129,-3.599 -10.184,-3.636 -0.312,-0.206 -3.063,-1.967 -4.99,-1.352 -0.679,0.217 -1.184,0.71 -1.462,1.427 -1.378,3.561 3.55,6.117 5.169,6.956 2.196,1.138 5.59,7.196 7.212,10.747 0.49,1.07 0.375,2.406 -0.323,3.761 -1.152,2.237 -3.561,3.954 -6.287,4.48 -4.758,0.915 -7.32,-3.078 -7.345,-3.119 l -0.304,-0.486 -0.47,0.327 c 0,0 -1.183,0.819 -4.006,2.823 -2.312,1.64 -2.668,6.274 -2.7,8.515 l -7.177,-6.209 c -0.063,-0.049 -2.803,-2.091 -2.722,-5.03 0.077,-2.758 3.037,-3.185 3.163,-3.202 l 0.706,-0.095 -0.274,-0.657 c -0.013,-0.033 -1.332,-3.25 -0.025,-5.619 0.108,-0.196 0.257,-0.3 0.484,-0.336 1.534,-0.247 5.183,2.502 7.126,4.293 l 0.42,0.387 7.105,-8.444 -0.654,-0.297 c -0.08,-0.037 -8.057,-3.709 -10.486,-7.874 -1.945,-3.334 -0.375,-5.151 1.287,-7.073 0.319,-0.37 0.65,-0.752 0.948,-1.14 1.419,-1.845 6.682,0.041 11.133,2.421 1.372,0.735 2.78,0.76 4.07,0.078 C 7.349,20.532 9.064,17.266 9.471,13.401 9.983,8.538 1.962,1.615 0,0 m 95.688,-52.109 -0.03,0.002 c -0.152,0.008 -15.409,0.924 -34.865,7.749 -17.962,6.299 -43.296,19.069 -61.982,44.125 l -0.318,0.425 0.417,0.329 c 0.1,0.08 9.984,7.941 9.476,12.767 -0.364,3.458 -1.889,6.461 -3.795,7.471 -0.969,0.513 -1.993,0.489 -3.045,-0.074 -3.743,-2.002 -10.347,-4.941 -12.512,-2.125 -0.279,0.363 -0.585,0.716 -0.909,1.091 -1.754,2.029 -3.742,4.328 -1.403,8.337 2.206,3.783 8.313,7.016 10.331,8.008 l -5.458,6.486 c -1.375,-1.211 -5.4,-4.543 -7.617,-4.187 -0.557,0.091 -0.994,0.397 -1.264,0.887 -1.198,2.171 -0.614,4.779 -0.246,5.95 -1.43,0.396 -3.389,1.58 -3.46,4.12 -0.098,3.521 3.003,5.817 3.135,5.913 l 9.023,7.81 -0.063,-1.276 c -0.096,-1.94 0.116,-7.306 2.226,-8.803 1.851,-1.314 2.995,-2.118 3.563,-2.514 0.921,1.153 3.706,4.009 8.138,3.15 3.047,-0.588 5.749,-2.524 7.051,-5.052 0.854,-1.658 0.977,-3.333 0.345,-4.714 C 12.382,43.671 8.034,34.22 4.724,32.504 0.902,30.522 -0.62,28.693 0.07,26.91 c 0.161,-0.415 0.407,-0.663 0.775,-0.78 1.212,-0.39 3.338,0.75 4.054,1.221 0.229,0.154 5.734,3.819 10.789,3.819 h 0.064 c 5.391,-0.033 8.346,-2.391 9.874,-4.361 2.081,-2.682 2.544,-5.955 2.203,-7.322 -0.452,-1.803 -0.208,-5.252 -0.136,-6.13 2.442,-2.218 33.351,-29.677 67.995,-32.024 34.655,2.348 65.555,29.806 67.996,32.024 0.072,0.878 0.315,4.328 -0.135,6.13 -0.342,1.368 0.122,4.64 2.202,7.322 1.529,1.97 4.483,4.328 9.874,4.361 h 0.064 c 5.056,0 10.561,-3.665 10.793,-3.822 0.712,-0.468 2.834,-1.609 4.051,-1.218 0.367,0.117 0.614,0.365 0.774,0.78 0.69,1.783 -0.831,3.612 -4.653,5.594 -3.309,1.716 -7.66,11.167 -7.703,11.262 -0.631,1.381 -0.509,3.056 0.346,4.715 1.302,2.528 4.003,4.463 7.05,5.051 4.43,0.855 7.217,-1.996 8.139,-3.149 0.567,0.395 1.711,1.199 3.562,2.513 2.113,1.499 2.323,6.863 2.226,8.803 l -0.063,1.277 9.06,-7.839 c 0.095,-0.068 3.196,-2.364 3.098,-5.885 -0.07,-2.54 -2.029,-3.724 -3.46,-4.12 0.368,-1.171 0.952,-3.779 -0.245,-5.95 -0.27,-0.49 -0.708,-0.796 -1.266,-0.887 -2.217,-0.361 -6.241,2.976 -7.616,4.187 l -5.457,-6.486 c 2.018,-0.992 8.124,-4.225 10.33,-8.008 2.339,-4.009 0.351,-6.307 -1.402,-8.337 -0.324,-0.375 -0.63,-0.728 -0.909,-1.091 -2.167,-2.817 -8.77,0.122 -12.514,2.125 -1.051,0.562 -2.074,0.587 -3.044,0.074 -1.905,-1.01 -3.431,-4.013 -3.795,-7.471 -0.508,-4.829 9.376,-12.687 9.476,-12.767 l 0.418,-0.329 -0.319,-0.425 c -18.685,-25.056 -44.019,-37.826 -61.982,-44.125 -19.456,-6.825 -34.713,-7.741 -34.865,-7.749 z"
           style="fill:#231f20;fill-opacity:1;fill-rule:nonzero;stroke:none"
           id="path428" />
      </g>
      <g
         id="g430"
         transform="matrix(0.35277777,0,0,-0.35277777,67.936663,129.69359)">
        <path
           d="m 0,0 -1.484,1.567 -7.933,-7.512 c -0.456,-0.433 -0.857,-0.688 -1.204,-0.765 -0.346,-0.076 -0.618,-0.011 -0.817,0.198 -0.201,0.214 -0.253,0.492 -0.157,0.838 0.097,0.346 0.371,0.733 0.823,1.161 l 7.932,7.511 -1.484,1.566 c -0.232,0.246 -0.322,0.507 -0.268,0.785 0.053,0.276 0.217,0.544 0.49,0.802 0.283,0.268 0.565,0.417 0.846,0.449 0.281,0.031 0.534,-0.071 0.757,-0.306 L 1.825,1.728 C 2.06,1.479 2.15,1.215 2.096,0.934 2.042,0.653 1.878,0.384 1.604,0.125 1.332,-0.133 1.054,-0.28 0.771,-0.315 0.489,-0.351 0.232,-0.245 0,0"
           style="fill:#231f20;fill-opacity:1;fill-rule:nonzero;stroke:none"
           id="path432" />
      </g>
      <g
         id="g434"
         transform="matrix(0.35277777,0,0,-0.35277777,65.827758,132.99918)">
        <path
           d="m 0,0 8.114,8.634 c 0.421,0.449 0.803,0.722 1.147,0.822 0.343,0.1 0.62,0.051 0.831,-0.147 0.216,-0.204 0.287,-0.48 0.214,-0.828 C 10.231,8.133 9.981,7.732 9.555,7.279 L 1.442,-1.354 C 1.016,-1.809 0.63,-2.084 0.285,-2.183 -0.06,-2.28 -0.341,-2.228 -0.558,-2.023 -0.765,-1.828 -0.829,-1.555 -0.75,-1.202 -0.671,-0.849 -0.421,-0.448 0,0"
           style="fill:#231f20;fill-opacity:1;fill-rule:nonzero;stroke:none"
           id="path436" />
      </g>
      <g
         id="g438"
         transform="matrix(0.35277777,0,0,-0.35277777,71.208995,132.59367)">
        <path
           d="M 0,0 -1.655,1.386 -8.668,-6.99 c -0.404,-0.482 -0.774,-0.781 -1.109,-0.898 -0.335,-0.116 -0.613,-0.082 -0.834,0.104 -0.225,0.187 -0.309,0.459 -0.253,0.812 0.056,0.355 0.284,0.77 0.684,1.247 l 7.013,8.376 -1.654,1.386 c -0.259,0.217 -0.377,0.466 -0.356,0.747 0.021,0.281 0.152,0.566 0.394,0.854 0.25,0.299 0.513,0.48 0.789,0.543 0.276,0.063 0.538,-0.009 0.786,-0.217 L 1.613,1.927 C 1.875,1.707 1.996,1.454 1.974,1.17 1.953,0.885 1.821,0.598 1.58,0.31 1.338,0.021 1.079,-0.157 0.803,-0.224 0.526,-0.291 0.259,-0.217 0,0"
           style="fill:#231f20;fill-opacity:1;fill-rule:nonzero;stroke:none"
           id="path440" />
      </g>
      <g
         id="g442"
         transform="matrix(0.35277777,0,0,-0.35277777,69.492307,136.12077)">
        <path
           d="m 0,0 7.089,9.494 c 0.368,0.492 0.717,0.808 1.047,0.946 0.33,0.137 0.611,0.12 0.842,-0.053 C 9.216,10.209 9.318,9.942 9.284,9.589 9.25,9.234 9.046,8.809 8.674,8.31 L 1.585,-1.183 C 1.212,-1.682 0.861,-1.999 0.529,-2.136 0.197,-2.272 -0.088,-2.251 -0.326,-2.073 -0.554,-1.903 -0.649,-1.638 -0.61,-1.278 -0.571,-0.92 -0.368,-0.493 0,0"
           style="fill:#231f20;fill-opacity:1;fill-rule:nonzero;stroke:none"
           id="path444" />
      </g>
      <g
         id="g446"
         transform="matrix(0.35277777,0,0,-0.35277777,75.791648,135.72767)">
        <path
           d="m 0,0 -1.83,1.146 -5.797,-9.26 c -0.335,-0.532 -0.66,-0.88 -0.975,-1.041 -0.316,-0.161 -0.597,-0.165 -0.841,-0.013 -0.248,0.155 -0.369,0.413 -0.362,0.772 0.008,0.359 0.176,0.801 0.506,1.329 L -3.5,2.191 -5.329,3.338 c -0.286,0.179 -0.439,0.409 -0.456,0.69 -0.018,0.282 0.074,0.581 0.273,0.9 0.207,0.33 0.443,0.547 0.708,0.646 0.264,0.101 0.533,0.066 0.808,-0.107 L 1.333,2.13 C 1.624,1.947 1.777,1.714 1.794,1.43 1.813,1.145 1.722,0.842 1.522,0.522 1.323,0.204 1.09,-0.008 0.826,-0.112 0.561,-0.217 0.286,-0.18 0,0"
           style="fill:#231f20;fill-opacity:1;fill-rule:nonzero;stroke:none"
           id="path448" />
      </g>
      <g
         id="g450"
         transform="matrix(0.35277777,0,0,-0.35277777,75.735169,138.38317)">
        <path
           d="m 0,0 2.569,-1.383 1.645,6.162 z m 1.47,-5.533 0.484,1.884 -3.496,1.88 -1.324,-1.477 c -0.517,-0.576 -0.894,-0.949 -1.133,-1.12 -0.238,-0.17 -0.485,-0.187 -0.744,-0.048 -0.219,0.117 -0.346,0.346 -0.381,0.684 -0.036,0.336 0.031,0.662 0.2,0.974 0.097,0.182 0.217,0.358 0.36,0.529 0.143,0.171 0.351,0.405 0.626,0.701 L 2.89,5.889 C 3.085,6.102 3.319,6.357 3.594,6.657 3.868,6.956 4.117,7.192 4.34,7.368 4.562,7.543 4.793,7.658 5.032,7.712 5.271,7.766 5.509,7.729 5.747,7.601 5.99,7.471 6.154,7.29 6.24,7.062 6.326,6.833 6.359,6.58 6.339,6.304 6.318,6.027 6.274,5.743 6.205,5.45 6.135,5.156 6.039,4.769 5.914,4.284 L 3.562,-5.47 C 3.388,-6.215 3.222,-6.735 3.063,-7.03 2.897,-7.337 2.663,-7.573 2.359,-7.741 2.055,-7.907 1.785,-7.928 1.551,-7.801 1.414,-7.728 1.317,-7.626 1.26,-7.499 c -0.057,0.129 -0.085,0.275 -0.081,0.44 0.003,0.165 0.038,0.403 0.107,0.712 0.067,0.308 0.129,0.579 0.184,0.814"
           style="fill:#231f20;fill-opacity:1;fill-rule:nonzero;stroke:none"
           id="path452" />
      </g>
      <g
         id="g454"
         transform="matrix(0.35277777,0,0,-0.35277777,80.071337,137.57288)">
        <path
           d="m 0,0 -0.122,-9.643 3.631,8.175 c 0.236,0.531 0.487,0.897 0.753,1.097 0.266,0.2 0.525,0.243 0.777,0.132 0.26,-0.115 0.406,-0.339 0.438,-0.672 0.032,-0.332 -0.07,-0.764 -0.306,-1.295 L 0.37,-13.016 c -0.535,-1.206 -1.128,-1.665 -1.777,-1.377 -0.162,0.073 -0.292,0.174 -0.39,0.303 -0.099,0.13 -0.169,0.299 -0.214,0.505 -0.044,0.206 -0.068,0.437 -0.072,0.689 -0.005,0.252 -0.007,0.509 -0.007,0.771 l 0.164,9.514 -3.576,-8.055 c -0.233,-0.523 -0.489,-0.887 -0.766,-1.085 -0.278,-0.198 -0.541,-0.241 -0.788,-0.132 -0.256,0.113 -0.401,0.34 -0.434,0.682 -0.033,0.34 0.065,0.768 0.296,1.288 l 4.709,10.601 c 0.199,0.452 0.389,0.79 0.567,1.018 0.202,0.247 0.432,0.42 0.689,0.519 0.259,0.097 0.491,0.102 0.698,0.009 C -0.369,2.163 -0.248,2.061 -0.168,1.928 -0.088,1.795 -0.036,1.641 -0.01,1.464 0.017,1.288 0.027,1.07 0.021,0.811 0.015,0.552 0.008,0.282 0,0"
           style="fill:#231f20;fill-opacity:1;fill-rule:nonzero;stroke:none"
           id="path456" />
      </g>
      <g
         id="g458"
         transform="matrix(0.35277777,0,0,-0.35277777,84.573381,142.1211)">
        <path
           d="m 0,0 -0.97,-2.715 c -0.128,-0.36 -0.255,-0.64 -0.378,-0.84 -0.123,-0.199 -0.277,-0.363 -0.462,-0.493 -0.186,-0.13 -0.403,-0.241 -0.653,-0.334 -0.722,-0.264 -1.378,-0.411 -1.968,-0.44 -0.59,-0.029 -1.189,0.065 -1.795,0.282 -0.707,0.252 -1.291,0.649 -1.753,1.191 -0.461,0.542 -0.784,1.206 -0.966,1.99 -0.182,0.784 -0.221,1.67 -0.116,2.656 0.105,0.986 0.357,2.04 0.757,3.161 0.393,1.101 0.86,2.07 1.4,2.909 0.54,0.838 1.131,1.502 1.773,1.992 0.641,0.489 1.319,0.797 2.034,0.924 0.715,0.126 1.449,0.054 2.201,-0.215 C -0.277,9.847 0.226,9.524 0.611,9.1 0.997,8.675 1.27,8.217 1.429,7.724 1.587,7.231 1.665,6.742 1.662,6.258 1.658,5.772 1.597,5.362 1.477,5.027 1.348,4.666 1.151,4.391 0.887,4.197 0.623,4.006 0.369,3.952 0.127,4.04 -0.007,4.087 -0.119,4.182 -0.207,4.322 -0.296,4.463 -0.352,4.635 -0.373,4.838 -0.405,5.475 -0.45,5.963 -0.508,6.303 -0.566,6.643 -0.695,6.958 -0.896,7.248 -1.097,7.536 -1.406,7.756 -1.824,7.905 -2.255,8.06 -2.68,8.082 -3.101,7.975 -3.521,7.867 -3.929,7.639 -4.325,7.29 -4.721,6.94 -5.095,6.474 -5.448,5.888 -5.801,5.303 -6.114,4.627 -6.388,3.86 -6.981,2.199 -7.19,0.832 -7.014,-0.24 c 0.176,-1.072 0.707,-1.767 1.594,-2.084 0.43,-0.154 0.866,-0.211 1.307,-0.172 0.441,0.039 0.913,0.15 1.417,0.333 l 0.821,2.299 -1.443,0.514 c -0.348,0.125 -0.581,0.299 -0.702,0.524 -0.12,0.223 -0.111,0.53 0.027,0.917 0.113,0.315 0.281,0.549 0.502,0.702 0.222,0.153 0.461,0.185 0.717,0.093 L -0.661,2.131 C -0.402,2.038 -0.194,1.925 -0.04,1.79 0.114,1.654 0.203,1.444 0.227,1.16 0.25,0.877 0.174,0.49 0,0"
           style="fill:#231f20;fill-opacity:1;fill-rule:nonzero;stroke:none"
           id="path460" />
      </g>
      <g
         id="g462"
         transform="matrix(0.35277777,0,0,-0.35277777,88.255499,143.16426)">
        <path
           d="m 0,0 -0.77,-2.777 c -0.103,-0.369 -0.208,-0.658 -0.315,-0.866 -0.109,-0.208 -0.251,-0.382 -0.426,-0.525 -0.176,-0.143 -0.385,-0.269 -0.628,-0.379 -0.7,-0.318 -1.344,-0.512 -1.931,-0.583 -0.586,-0.072 -1.19,-0.021 -1.81,0.151 -0.724,0.201 -1.335,0.554 -1.834,1.062 -0.501,0.507 -0.869,1.146 -1.108,1.914 -0.239,0.769 -0.342,1.649 -0.308,2.641 0.032,0.991 0.208,2.059 0.526,3.207 0.312,1.126 0.707,2.128 1.185,3.003 0.477,0.875 1.019,1.58 1.623,2.115 0.605,0.535 1.258,0.891 1.962,1.069 0.703,0.177 1.44,0.158 2.211,-0.054 C -0.99,9.802 -0.465,9.517 -0.05,9.121 0.366,8.726 0.671,8.287 0.865,7.808 1.059,7.328 1.172,6.847 1.204,6.362 1.236,5.878 1.204,5.464 1.109,5.122 1.006,4.754 0.831,4.464 0.581,4.252 0.331,4.04 0.082,3.97 -0.167,4.038 -0.303,4.077 -0.421,4.162 -0.52,4.296 -0.619,4.431 -0.687,4.598 -0.723,4.799 -0.801,5.432 -0.881,5.915 -0.963,6.25 -1.045,6.586 -1.197,6.891 -1.418,7.164 -1.64,7.438 -1.964,7.634 -2.392,7.754 -2.833,7.875 -3.259,7.867 -3.67,7.73 -4.082,7.592 -4.473,7.335 -4.842,6.958 -5.211,6.581 -5.55,6.088 -5.86,5.479 -6.17,4.868 -6.433,4.172 -6.65,3.389 -7.122,1.687 -7.23,0.31 -6.978,-0.747 c 0.253,-1.057 0.833,-1.711 1.741,-1.963 0.441,-0.121 0.879,-0.147 1.316,-0.077 0.437,0.07 0.9,0.216 1.389,0.435 L -1.88,0 -3.356,0.409 c -0.355,0.1 -0.601,0.256 -0.738,0.472 -0.135,0.214 -0.149,0.519 -0.039,0.915 0.089,0.323 0.239,0.569 0.45,0.737 0.21,0.169 0.446,0.218 0.707,0.146 L -0.813,2.078 C -0.548,2.005 -0.333,1.906 -0.169,1.783 -0.005,1.659 0.099,1.457 0.142,1.175 0.187,0.894 0.139,0.501 0,0"
           style="fill:#231f20;fill-opacity:1;fill-rule:nonzero;stroke:none"
           id="path464" />
      </g>
      <g
         id="g466"
         transform="matrix(0.35277777,0,0,-0.35277777,89.584271,143.53324)">
        <path
           d="M 0,0 2.858,-0.589 2.666,5.786 Z m 2.996,-4.88 -0.077,1.943 -3.889,0.801 -0.845,-1.796 c -0.33,-0.7 -0.584,-1.166 -0.763,-1.398 -0.179,-0.232 -0.412,-0.317 -0.699,-0.259 -0.244,0.05 -0.431,0.231 -0.562,0.544 -0.13,0.314 -0.16,0.644 -0.088,0.992 0.041,0.202 0.105,0.405 0.193,0.611 0.088,0.205 0.221,0.489 0.4,0.849 L 1.079,6.47 C 1.206,6.729 1.357,7.042 1.534,7.407 1.711,7.772 1.881,8.07 2.044,8.303 2.208,8.534 2.396,8.71 2.608,8.83 2.822,8.951 3.061,8.983 3.326,8.93 3.596,8.874 3.804,8.748 3.953,8.555 4.101,8.359 4.205,8.127 4.265,7.856 4.325,7.586 4.363,7.3 4.381,6.999 4.398,6.7 4.417,6.299 4.437,5.8 L 4.981,-4.219 C 5.028,-4.982 5.018,-5.528 4.95,-5.856 4.88,-6.199 4.723,-6.493 4.479,-6.739 4.236,-6.986 3.984,-7.082 3.723,-7.029 3.571,-6.997 3.449,-6.929 3.357,-6.822 3.266,-6.717 3.198,-6.585 3.154,-6.425 3.109,-6.266 3.075,-6.028 3.052,-5.713 3.028,-5.397 3.01,-5.119 2.996,-4.88"
           style="fill:#231f20;fill-opacity:1;fill-rule:nonzero;stroke:none"
           id="path468" />
      </g>
      <g
         id="g470"
         transform="matrix(0.35277777,0,0,-0.35277777,93.673072,141.75901)">
        <path
           d="m 0,0 -1.329,0.102 -0.351,-4.581 1.328,-0.103 c 0.465,-0.035 0.859,0.01 1.183,0.136 0.324,0.125 0.581,0.353 0.771,0.681 0.19,0.328 0.306,0.769 0.348,1.321 0.051,0.662 -0.034,1.21 -0.255,1.645 C 1.446,-0.334 0.881,-0.067 0,0 m -0.049,-6.91 -1.806,0.139 -0.327,-4.245 c -0.046,-0.606 -0.174,-1.059 -0.384,-1.359 -0.21,-0.3 -0.457,-0.438 -0.741,-0.417 -0.296,0.022 -0.524,0.196 -0.681,0.521 -0.158,0.325 -0.213,0.786 -0.167,1.386 l 0.886,11.558 c 0.051,0.667 0.188,1.138 0.409,1.409 0.221,0.271 0.549,0.39 0.983,0.356 L 0.653,2.244 C 1.401,2.187 1.97,2.055 2.359,1.846 2.745,1.646 3.067,1.335 3.327,0.917 3.586,0.499 3.77,-0.002 3.876,-0.586 3.982,-1.17 4.009,-1.819 3.954,-2.536 3.836,-4.063 3.442,-5.197 2.771,-5.937 2.099,-6.679 1.159,-7.002 -0.049,-6.91"
           style="fill:#231f20;fill-opacity:1;fill-rule:nonzero;stroke:none"
           id="path472" />
      </g>
      <g
         id="g474"
         transform="matrix(0.35277777,0,0,-0.35277777,98.824368,141.4262)">
        <path
           d="m 0,0 -2.127,-0.362 1.834,-10.769 c 0.106,-0.621 0.095,-1.096 -0.034,-1.427 -0.128,-0.33 -0.335,-0.519 -0.619,-0.567 -0.289,-0.05 -0.551,0.062 -0.784,0.334 -0.233,0.272 -0.402,0.716 -0.507,1.329 l -1.834,10.77 -2.127,-0.363 c -0.333,-0.056 -0.6,0.014 -0.8,0.212 -0.2,0.198 -0.333,0.484 -0.396,0.854 -0.065,0.385 -0.033,0.703 0.098,0.953 0.13,0.252 0.356,0.404 0.676,0.458 l 6.198,1.057 C -0.085,2.536 0.186,2.463 0.389,2.263 0.592,2.062 0.725,1.774 0.788,1.405 0.852,1.034 0.819,0.721 0.691,0.467 0.563,0.213 0.333,0.058 0,0"
           style="fill:#231f20;fill-opacity:1;fill-rule:nonzero;stroke:none"
           id="path476" />
      </g>
      <g
         id="g478"
         transform="matrix(0.35277777,0,0,-0.35277777,100.78084,140.89566)">
        <path
           d="M 0,0 -1.773,-0.43 -0.8,-4.447 0.922,-4.03 c 0.462,0.111 0.835,0.267 1.121,0.467 0.285,0.199 0.475,0.466 0.569,0.803 0.095,0.336 0.079,0.763 -0.047,1.281 -0.097,0.406 -0.251,0.748 -0.46,1.023 C 1.896,-0.179 1.655,0.007 1.381,0.103 1.121,0.194 0.661,0.16 0,0 m 0.388,-6.407 -0.673,-0.163 1.138,-4.696 c 0.149,-0.618 0.17,-1.095 0.064,-1.43 -0.105,-0.335 -0.301,-0.538 -0.586,-0.607 -0.307,-0.074 -0.581,0.022 -0.823,0.286 -0.242,0.266 -0.436,0.693 -0.578,1.286 l -2.725,11.245 c -0.154,0.637 -0.174,1.122 -0.058,1.453 0.117,0.33 0.382,0.546 0.796,0.647 L 0.07,2.37 C 0.502,2.476 0.878,2.537 1.198,2.555 1.518,2.572 1.822,2.524 2.11,2.411 2.455,2.291 2.784,2.078 3.1,1.774 3.416,1.472 3.69,1.097 3.925,0.65 4.158,0.204 4.34,-0.285 4.469,-0.817 4.732,-1.907 4.744,-2.826 4.503,-3.574 4.261,-4.322 3.768,-4.931 3.022,-5.399 c 0.409,-0.197 0.834,-0.531 1.277,-1 0.443,-0.469 0.86,-0.983 1.254,-1.538 0.392,-0.555 0.717,-1.065 0.972,-1.528 0.256,-0.461 0.407,-0.786 0.453,-0.972 0.045,-0.193 0.052,-0.393 0.018,-0.602 -0.034,-0.209 -0.106,-0.385 -0.218,-0.527 -0.111,-0.144 -0.257,-0.238 -0.439,-0.282 -0.216,-0.051 -0.416,-0.018 -0.601,0.104 -0.184,0.12 -0.358,0.288 -0.522,0.501 -0.164,0.213 -0.393,0.53 -0.687,0.952 L 3.28,-8.503 c -0.451,0.657 -0.832,1.149 -1.141,1.475 -0.31,0.326 -0.594,0.532 -0.852,0.617 -0.259,0.085 -0.558,0.086 -0.899,0.004"
           style="fill:#231f20;fill-opacity:1;fill-rule:nonzero;stroke:none"
           id="path480" />
      </g>
      <g
         id="g482"
         transform="matrix(0.35277777,0,0,-0.35277777,104.93423,139.73537)">
        <path
           d="m 0,0 -4.254,-1.324 1.098,-3.528 3.918,1.221 C 1.05,-3.54 1.296,-3.573 1.5,-3.728 1.704,-3.884 1.856,-4.123 1.959,-4.45 2.061,-4.776 2.073,-5.064 1.997,-5.313 1.922,-5.563 1.737,-5.732 1.444,-5.824 l -3.917,-1.221 1.273,-4.083 4.4,1.37 c 0.297,0.093 0.554,0.057 0.771,-0.108 0.216,-0.166 0.379,-0.425 0.489,-0.778 0.105,-0.339 0.116,-0.639 0.032,-0.898 -0.085,-0.259 -0.275,-0.435 -0.571,-0.526 l -5.133,-1.6 c -0.411,-0.128 -0.75,-0.08 -1.017,0.145 -0.269,0.225 -0.5,0.651 -0.695,1.278 l -3.363,10.792 c -0.13,0.417 -0.195,0.771 -0.197,1.061 -0.002,0.289 0.064,0.521 0.198,0.696 0.135,0.174 0.335,0.302 0.601,0.385 l 4.987,1.554 C -0.397,2.337 -0.142,2.303 0.068,2.144 0.279,1.983 0.437,1.737 0.539,1.403 0.646,1.064 0.657,0.769 0.575,0.518 0.492,0.267 0.302,0.094 0,0"
           style="fill:#231f20;fill-opacity:1;fill-rule:nonzero;stroke:none"
           id="path484" />
      </g>
      <g
         id="g486"
         transform="matrix(0.35277777,0,0,-0.35277777,106.49485,138.88271)">
        <path
           d="M 0,0 6.745,-6.895 3.518,1.448 C 3.308,1.991 3.226,2.427 3.272,2.756 3.318,3.086 3.47,3.3 3.727,3.4 3.991,3.502 4.253,3.447 4.512,3.235 4.77,3.023 5.004,2.646 5.213,2.105 L 9.48,-8.926 c 0.477,-1.23 0.383,-1.974 -0.279,-2.231 -0.165,-0.064 -0.329,-0.084 -0.49,-0.063 -0.161,0.023 -0.33,0.091 -0.508,0.205 -0.177,0.115 -0.356,0.26 -0.539,0.435 -0.183,0.176 -0.366,0.355 -0.552,0.54 l -6.621,6.831 3.18,-8.218 c 0.207,-0.536 0.283,-0.971 0.227,-1.308 -0.055,-0.337 -0.21,-0.555 -0.461,-0.652 -0.262,-0.101 -0.525,-0.044 -0.79,0.173 -0.264,0.218 -0.499,0.589 -0.704,1.119 l -4.185,10.821 c -0.178,0.459 -0.284,0.832 -0.32,1.119 -0.032,0.317 0.008,0.601 0.121,0.854 0.111,0.253 0.272,0.419 0.484,0.501 0.165,0.065 0.323,0.078 0.474,0.041 C -1.334,1.203 -1.187,1.132 -1.044,1.025 -0.9,0.92 -0.739,0.774 -0.56,0.586 -0.38,0.398 -0.193,0.204 0,0"
           style="fill:#231f20;fill-opacity:1;fill-rule:nonzero;stroke:none"
           id="path488" />
      </g>
      <g
         id="g490"
         transform="matrix(0.35277777,0,0,-0.35277777,112.90101,138.89855)">
        <path
           d="M 0,0 1.242,-2.602 C 1.407,-2.946 1.518,-3.233 1.572,-3.461 1.627,-3.689 1.635,-3.914 1.597,-4.137 1.558,-4.36 1.482,-4.593 1.372,-4.835 1.052,-5.534 0.693,-6.104 0.298,-6.542 -0.098,-6.981 -0.586,-7.34 -1.167,-7.617 c -0.677,-0.323 -1.371,-0.458 -2.08,-0.404 -0.711,0.055 -1.408,0.294 -2.093,0.718 -0.684,0.423 -1.34,1.02 -1.966,1.789 -0.626,0.77 -1.195,1.692 -1.709,2.765 -0.504,1.055 -0.863,2.069 -1.077,3.044 -0.214,0.973 -0.268,1.86 -0.164,2.661 0.105,0.8 0.364,1.498 0.778,2.094 0.415,0.596 0.982,1.065 1.704,1.411 0.592,0.282 1.175,0.411 1.75,0.386 C -5.451,6.821 -4.935,6.692 -4.473,6.458 -4.012,6.224 -3.61,5.934 -3.269,5.589 -2.927,5.245 -2.679,4.912 -2.526,4.592 -2.36,4.245 -2.304,3.912 -2.353,3.588 -2.403,3.265 -2.544,3.047 -2.776,2.937 -2.904,2.876 -3.05,2.863 -3.212,2.899 -3.375,2.936 -3.536,3.018 -3.695,3.146 -4.169,3.57 -4.547,3.883 -4.829,4.082 -5.111,4.28 -5.426,4.41 -5.772,4.473 -6.12,4.534 -6.493,4.469 -6.894,4.277 -7.307,4.08 -7.623,3.795 -7.843,3.42 -8.063,3.046 -8.188,2.597 -8.22,2.07 -8.251,1.544 -8.184,0.948 -8.017,0.285 c 0.167,-0.663 0.425,-1.362 0.777,-2.096 0.761,-1.591 1.583,-2.703 2.468,-3.335 0.884,-0.63 1.751,-0.743 2.6,-0.336 0.413,0.196 0.761,0.464 1.044,0.805 0.282,0.34 0.537,0.753 0.762,1.239 l -1.052,2.204 -1.383,-0.661 c -0.332,-0.16 -0.62,-0.202 -0.864,-0.128 -0.244,0.072 -0.455,0.294 -0.632,0.664 -0.144,0.302 -0.192,0.586 -0.144,0.851 0.047,0.266 0.193,0.457 0.438,0.573 l 2.025,0.968 c 0.249,0.119 0.475,0.186 0.68,0.2 0.205,0.014 0.416,-0.07 0.634,-0.254 C -0.445,0.796 -0.224,0.47 0,0"
           style="fill:#231f20;fill-opacity:1;fill-rule:nonzero;stroke:none"
           id="path492" />
      </g>
      <g
         id="g494"
         transform="matrix(0.35277777,0,0,-0.35277777,116.22555,136.99305)">
        <path
           d="M 0,0 1.451,-2.491 C 1.644,-2.822 1.776,-3.099 1.85,-3.321 1.923,-3.545 1.948,-3.769 1.929,-3.993 1.908,-4.219 1.853,-4.457 1.763,-4.707 1.5,-5.43 1.189,-6.026 0.831,-6.496 0.472,-6.967 0.015,-7.363 -0.542,-7.687 -1.19,-8.064 -1.871,-8.255 -2.583,-8.258 c -0.713,-0.004 -1.427,0.178 -2.144,0.544 -0.716,0.366 -1.419,0.907 -2.105,1.623 -0.687,0.717 -1.329,1.588 -1.928,2.617 -0.588,1.01 -1.028,1.992 -1.322,2.946 -0.293,0.953 -0.42,1.832 -0.38,2.638 0.039,0.806 0.24,1.524 0.606,2.151 0.364,0.628 0.891,1.142 1.582,1.545 0.568,0.331 1.138,0.506 1.712,0.528 0.574,0.02 1.099,-0.066 1.579,-0.263 C -4.505,5.876 -4.081,5.62 -3.712,5.305 -3.344,4.989 -3.069,4.678 -2.891,4.37 -2.698,4.039 -2.613,3.71 -2.637,3.384 -2.66,3.058 -2.783,2.83 -3.006,2.701 -3.129,2.63 -3.272,2.604 -3.438,2.627 -3.602,2.65 -3.77,2.719 -3.938,2.834 -4.446,3.22 -4.848,3.499 -5.146,3.675 -5.442,3.85 -5.767,3.954 -6.117,3.987 -6.468,4.021 -6.835,3.926 -7.219,3.701 -7.614,3.472 -7.906,3.161 -8.095,2.771 -8.283,2.38 -8.372,1.921 -8.36,1.394 c 0.011,-0.529 0.127,-1.116 0.347,-1.762 0.221,-0.649 0.535,-1.323 0.945,-2.027 0.887,-1.525 1.797,-2.565 2.731,-3.123 0.933,-0.555 1.806,-0.597 2.62,-0.124 0.395,0.23 0.72,0.527 0.974,0.888 0.255,0.362 0.474,0.795 0.659,1.298 l -1.228,2.11 -1.325,-0.771 c -0.318,-0.186 -0.601,-0.252 -0.851,-0.198 -0.248,0.051 -0.477,0.255 -0.683,0.61 -0.168,0.29 -0.24,0.568 -0.214,0.837 0.027,0.268 0.156,0.471 0.391,0.607 l 1.939,1.13 c 0.239,0.139 0.459,0.223 0.661,0.254 C -1.19,1.154 -0.973,1.087 -0.74,0.922 -0.508,0.756 -0.261,0.449 0,0"
           style="fill:#231f20;fill-opacity:1;fill-rule:nonzero;stroke:none"
           id="path496" />
      </g>
      <g
         id="g498"
         transform="matrix(0.35277777,0,0,-0.35277777,117.73276,137.88396)">
        <path
           d="m 0,0 -6.576,9.855 c -0.341,0.512 -0.522,0.947 -0.541,1.304 -0.02,0.358 0.091,0.616 0.331,0.777 0.248,0.165 0.533,0.171 0.854,0.02 0.323,-0.15 0.657,-0.484 1.001,-1.003 L 1.646,1.099 C 1.991,0.581 2.173,0.143 2.19,-0.216 2.207,-0.573 2.092,-0.836 1.845,-1.001 1.608,-1.158 1.327,-1.158 1.001,-1.003 0.675,-0.847 0.342,-0.512 0,0"
           style="fill:#231f20;fill-opacity:1;fill-rule:nonzero;stroke:none"
           id="path500" />
      </g>
      <g
         id="g502"
         transform="matrix(0.35277777,0,0,-0.35277777,117.29147,133.09355)">
        <path
           d="M 0,0 8.393,-4.752 2.978,2.367 C 2.626,2.831 2.427,3.227 2.38,3.556 2.333,3.885 2.419,4.134 2.638,4.301 2.864,4.473 3.131,4.492 3.438,4.36 3.744,4.229 4.073,3.931 4.425,3.469 l 7.16,-9.414 c 0.799,-1.051 0.915,-1.79 0.35,-2.221 -0.141,-0.108 -0.292,-0.173 -0.453,-0.196 -0.161,-0.024 -0.342,-0.006 -0.545,0.055 -0.202,0.061 -0.416,0.15 -0.639,0.269 -0.223,0.117 -0.449,0.239 -0.68,0.365 L 1.362,-2.946 6.696,-9.96 c 0.348,-0.457 0.542,-0.854 0.582,-1.193 0.04,-0.339 -0.048,-0.591 -0.263,-0.755 -0.223,-0.17 -0.492,-0.187 -0.806,-0.052 -0.314,0.135 -0.643,0.428 -0.986,0.88 l -7.024,9.233 c -0.298,0.393 -0.504,0.722 -0.616,0.989 -0.12,0.295 -0.16,0.58 -0.123,0.853 0.038,0.274 0.146,0.479 0.327,0.616 0.142,0.108 0.289,0.164 0.443,0.169 0.155,0.007 0.316,-0.022 0.484,-0.084 C -1.12,0.635 -0.924,0.539 -0.699,0.408 -0.475,0.278 -0.241,0.143 0,0"
           style="fill:#231f20;fill-opacity:1;fill-rule:nonzero;stroke:none"
           id="path504" />
      </g>
      <g
         id="g506"
         transform="matrix(0.35277777,0,0,-0.35277777,121.71358,132.95749)">
        <path
           d="M 0,0 2.159,1.963 -3.104,5.565 Z M 5.706,-0.456 4.092,0.627 1.153,-2.041 2.104,-3.783 C 2.477,-4.462 2.702,-4.942 2.784,-5.224 2.865,-5.505 2.798,-5.745 2.581,-5.941 2.397,-6.108 2.14,-6.153 1.811,-6.073 1.48,-5.994 1.196,-5.824 0.957,-5.561 0.819,-5.408 0.693,-5.236 0.578,-5.045 0.464,-4.853 0.313,-4.578 0.127,-4.221 L -4.59,4.687 c -0.137,0.255 -0.3,0.561 -0.489,0.92 -0.192,0.359 -0.332,0.671 -0.423,0.94 -0.091,0.269 -0.122,0.523 -0.094,0.766 0.029,0.244 0.143,0.457 0.343,0.639 0.204,0.185 0.429,0.279 0.673,0.284 0.244,0.006 0.494,-0.048 0.747,-0.158 0.255,-0.112 0.508,-0.249 0.761,-0.412 0.253,-0.163 0.587,-0.383 1.003,-0.662 L 6.344,1.537 C 6.988,1.125 7.423,0.795 7.648,0.546 7.883,0.288 8.028,-0.013 8.084,-0.354 8.14,-0.695 8.068,-0.957 7.871,-1.136 7.757,-1.24 7.629,-1.299 7.489,-1.31 7.35,-1.321 7.203,-1.298 7.048,-1.239 6.894,-1.182 6.682,-1.068 6.412,-0.902 6.144,-0.735 5.908,-0.587 5.706,-0.456"
           style="fill:#231f20;fill-opacity:1;fill-rule:nonzero;stroke:none"
           id="path508" />
      </g>
      <g
         id="g510"
         transform="matrix(0.35277777,0,0,-0.35277777,125.84771,129.48862)">
        <path
           d="M 0,0 C 0.667,-0.618 1.164,-1.284 1.489,-2 1.814,-2.717 1.928,-3.429 1.83,-4.137 1.733,-4.846 1.412,-5.495 0.865,-6.085 c -0.654,-0.707 -1.4,-1.1 -2.237,-1.178 -0.598,-0.051 -1.238,0.05 -1.921,0.304 -0.683,0.253 -1.257,0.597 -1.724,1.029 -0.271,0.25 -0.447,0.527 -0.526,0.828 -0.08,0.301 -0.033,0.546 0.142,0.736 0.142,0.152 0.338,0.212 0.586,0.179 0.249,-0.035 0.555,-0.151 0.92,-0.35 0.436,-0.234 0.822,-0.407 1.155,-0.52 0.334,-0.112 0.667,-0.143 0.998,-0.092 0.331,0.049 0.641,0.232 0.93,0.544 0.399,0.43 0.568,0.923 0.509,1.477 -0.06,0.556 -0.32,1.046 -0.782,1.473 -0.366,0.34 -0.731,0.543 -1.094,0.608 -0.362,0.068 -0.71,0.042 -1.044,-0.076 -0.333,-0.118 -0.745,-0.308 -1.236,-0.566 -0.662,-0.343 -1.278,-0.573 -1.848,-0.69 -0.57,-0.117 -1.164,-0.079 -1.781,0.115 -0.617,0.195 -1.245,0.585 -1.882,1.176 -0.607,0.563 -1.047,1.169 -1.319,1.821 -0.273,0.652 -0.348,1.298 -0.224,1.941 0.124,0.641 0.441,1.237 0.951,1.788 0.408,0.44 0.844,0.743 1.309,0.908 0.466,0.165 0.936,0.225 1.41,0.178 0.475,-0.045 0.91,-0.161 1.307,-0.347 C -6.14,5.016 -5.796,4.787 -5.505,4.518 -5.239,4.271 -5.056,3.989 -4.956,3.669 -4.855,3.35 -4.89,3.099 -5.059,2.916 -5.213,2.75 -5.395,2.683 -5.602,2.715 -5.81,2.747 -6.106,2.848 -6.49,3.016 -7.027,3.271 -7.497,3.416 -7.899,3.45 -8.302,3.482 -8.69,3.298 -9.064,2.894 -9.411,2.52 -9.564,2.1 -9.524,1.636 -9.483,1.171 -9.285,0.773 -8.929,0.444 -8.708,0.24 -8.481,0.103 -8.248,0.032 c 0.233,-0.071 0.471,-0.092 0.713,-0.06 0.242,0.029 0.46,0.084 0.655,0.164 0.195,0.079 0.505,0.222 0.929,0.427 0.519,0.27 1.018,0.488 1.498,0.652 0.479,0.165 0.95,0.246 1.414,0.243 C -2.576,1.456 -2.093,1.341 -1.59,1.113 -1.087,0.888 -0.557,0.516 0,0"
           style="fill:#231f20;fill-opacity:1;fill-rule:nonzero;stroke:none"
           id="path512" />
      </g>
    </g>
  </g>
</svg>
